<svg id="Layer_1" data-name="Layer 1" xmlns="http://www.w3.org/2000/svg" viewBox="0 0 1671.22 915.33"><defs><style>.cls-1{fill:#f9f9f9;}.cls-2{font-size:110.92px;fill:#fff;stroke:#fff;stroke-miterlimit:10;font-family:BodoniSvtyTwoSCITCTT-Book, "Bodoni 72 Smallcaps";letter-spacing:0.01em;}.cls-3{font-size:108.77px;letter-spacing:0.01em;}</style></defs><path class="cls-1" d="M957.64,347.49c18.63,57.34,37.13,114.71,55.91,172,19.28,58.8,38.82,117.51,58.54,177.16-10.94.17-15.08-4.78-18-13.84q-66.13-201.93-133-403.64a22.14,22.14,0,0,0-2.11-3.75c-.57-2-1.12-4-1.75-6.28-.82,2.76-.72,4.89,2.16,5.92-.14,15,5.83,28.71,9.65,42.8q48.79,179.88,98.14,359.6a28.5,28.5,0,0,1,.5,4.42c-11.06,1.82-14.12-4.9-16.47-13.55Q962.28,488,913.09,307.68c-1.4-5.13-2.85-10.25-6.94-14.78l81.5,375.28c-13.22-1-13.34-1-15.67-11.82-7.85-36.52-15.36-73.12-23.76-109.52-1-4.27,2.63-15.46-9.6-11.64a3.55,3.55,0,0,1,.5-1c7.11-6.92,3.1-14.51,1.46-22Q887.53,268,834.3,23.91C832.15,14.1,836.76,8.42,842.36,0l447.52,767.15c-11.53,0-17.67-4.65-22.84-13.57Q1179.75,603,1091.81,452.9q-47.49-81.39-95-162.78c-2.44-4.17-5-8.26-10.54-10.75Q1106.41,512.65,1227,746.79c-13,.66-17.89-6.7-22.61-15.89q-110.1-214.41-220.75-428.55c-2.29-4.42-2.78-10.59-11-13.19l198,439.38c-12.35.53-17-6.21-21.07-15.24Q1055.34,503.57,960.76,294c-2.37-5.25-3.59-11.17-11-17.71C1007,423.27,1062.89,567.1,1119,711.49c-13.12,1.62-16.43-6.62-19.94-15.69Q1032.59,524,965.73,352.34c-1.06-2.74-2.46-5.35-3.71-8l-23.43-62.24-3.18,1.12ZM951.11,272l-2.86-1.83c-.26.56-.89,1.37-.71,1.64a29.1,29.1,0,0,0,2.56,3Zm29-8.72c-.24-.69-.32-1.88-.85-2.13a2.66,2.66,0,0,0-2.43.4c-2.1,2,.72,1.81,1.34,2.52C979.11,265.05,979.88,264.71,980.16,263.25Zm6.74,10.52c-.4-.35-.8-.95-1.07-.9a8.43,8.43,0,0,0-1.93.9c.32.33.7,1,.93.92A9.85,9.85,0,0,0,986.9,273.77Zm-3.34-5.89c-.3-.32-.67-.94-.88-.89a8.4,8.4,0,0,0-1.81.88c.3.32.66.94.88.89A7,7,0,0,0,983.56,267.88Z"/><path class="cls-1" d="M548.46,518q58.85-88.95,117.66-177.92,78.78-119.79,157.21-239.8c2.63-4,5.56-7.79,8.93-12.49,5.9,10.16,4.11,18-2.22,25.87-4.28,5.33-7.62,11.43-11.2,17.28-1.39,2.27-1.56,4.87,1.43,6,2.68,1,4.52-.39,5.4-3l.2-.14c-7.31-1-11.52,3.71-14.9,8.83q-49.74,75.48-99.19,151.15Q639.54,403.95,567.3,514.06c-2,3-3.51,6.36-5.26,9.54l3,1.87L844.5,144.66c5.92,9.91,3.64,16.94-2.32,25Q708.56,351.34,575.56,533.43c-2.82,3.35-6.3,6.37-7,12.05,5.39-2.37,7.58-5.9,9.34-9.8q71.7-87,143.36-174.06,62.63-76.33,124.92-152.94c3-3.73,6.37-7.24,9.8-11.13,6,9.61,2.83,16.19-3.36,23.73Q728.15,372.9,604.24,525c-2.46,3-4.6,6.31-6.88,9.47-1.38,1.14-3.79,2.06-2.15,4.35s3.08.63,4.23-.92Q703.25,424.07,807.06,310.25c19.51-21.4,39-42.86,58.71-64.61,7.93,9.13,3.25,15.57-3.18,22.64Q731.63,412,601,556c-3.26,3.58-6.09,7.55-9.12,11.34-1.82.29-2.81,1.29-2.68,3.22a2.63,2.63,0,0,0-2.77,3.11l-4.27,1.07c.2,2.36-1.32,3.07-3.25,3.4.18,2-.76,3-2.74,3,.28,2.22-1,2.9-2.92,2.94l3.12.27-.21-3.23c1.15.16,1.81,2.38,3.53.46s-.51-2.36-.77-3.5c1.38.34,2.39,2.52,4.27.49s-.51-2.75-1-4c.94.65.07,3.15,2.66,2.23,2.21-.78,1-2.33,1.36-3.53,2.56,2.94,2.93-.27,4-1.45l3.3-2.86c62.31-61.52,124.86-122.8,186.83-184.67,31.56-31.49,62.08-64,94-97.06,8.56,12.91,3.36,18.87-3.29,25.44Q760.26,422.11,649.87,532c-3.61,3.59-9,6.15-6.74,15.29L885.31,331.16c5.19,9.5,2.48,15.13-4.45,21.3Q638.9,567.88,397.47,783.9c-7.81,7-15.41,6.61-26,5.44l446-764.88c6.7,13.86,6.77,13.9-.72,26.75Q684.63,277.83,552.45,504.43c-2.23,3.82-4.33,7.71-6.49,11.57-.53,1.29-1.07,2.57-1.6,3.86-1.73,1.72-5.78,3.72-3.62,5.73,2.84,2.65,4.42-1.33,5.72-3.69Zm26.67,47.09c-4.73-3.1-3.12.88-3.25,2.92-1.21-.93-2.21-.78-2.79.66-.13.31.23.82.37,1.24l2.09-2.22c2,.1,2.86-1.05,3.08-2.87l2.08-2.87c-.8,0-1.86-.23-2.33.18C572.91,563.44,574.11,564.32,575.13,565.13ZM594,592.79c-1.35-.95-2.89-2.07-4-.06-.38.67.46,2,.74,3.07l-3.1-.2.17,3.11c-2.53-.65-4.05-.22-3.08,2.88l-3.1,3h-3.61l3.66-.08c.12-1.91.37-3.69,3-3,.15-1.89.78-3.26,3.07-2.85-.15-1.94,1-2.78,2.59-3.25a43.07,43.07,0,0,0,3.21-3l2.89-2.68c3.83-12.53,19.36-12.76,24.8-23.6,1.6-1,3.17-2.57,1.7-4.05-2.5-2.5-3.57.22-4.66,2-10.79,5.66-14.69,17.06-21.7,25.84-1-.42-2.39-1.47-3-1.13C591.24,590.22,592.89,591.56,594,592.79ZM564.47,549c-1.86.85-3.24,2.66-1.34,3.85,2.18,1.38,2.72-.83,2.62-2.75.86-.86,1.73-1.71,2.53-2.62a6.42,6.42,0,0,0-.88-1C566.39,547.28,565.43,548.14,564.47,549Zm26.28-6.9-10.49,13.67c-.84.91-2.55,2.37-2.37,2.65,1.74,2.78,2.78.14,4.06-.73l10.95-12.93c1.73-1.15,4.49-2.29,1.84-4.65C593.25,538.76,591.72,540.62,590.75,542.09Zm-31-9.69a20.62,20.62,0,0,0,2.81-4.11c.41-1-.11-3.11-1.93-2.06a10.2,10.2,0,0,0-3.6,4.18C556.61,531.24,556.86,533.16,559.75,532.4Zm-2.83,4.28c-.59-1.18-1-2-1.36-2.73l-3.49,2c.57.8,1.18,2.28,1.69,2.24C554.84,538.08,555.86,537.22,556.92,536.68Zm73.27,21.48c-1.82-1.22-3.13-2.58-3.61-2.33a8.63,8.63,0,0,0-2.79,3,1.59,1.59,0,0,0,1.46,2.65C626.75,561.13,628,559.72,630.19,558.16Zm-61.92,34.68a3.51,3.51,0,0,0,1.15.23c.16,0,.26-.52.39-.81a3.4,3.4,0,0,0-1.09-.09C568.53,592.22,568.42,592.61,568.27,592.84ZM633.17,554c-.39-.4-.72-.73-1-1a9.1,9.1,0,0,0-.92,2c-.05.24.6.64.92,1C632.48,555.28,632.83,554.64,633.17,554Z"/><path class="cls-1" d="M1294.74,790H405.53c5-9.28,12-11.69,21.7-11.68q273.21.38,546.41.24c6.83,0,13.67,0,20.58-3L454.83,747.22c8.42-12.47,8.41-12.3,20.52-11.66q207.9,11,415.8,21.85c31.94,1.69,63.87,3.69,95.81,5.42,10.65.57,21.35,1.17,29.18-.68L497.63,707.6c6-10.74,13.83-11.47,24.28-10.32,80.2,8.82,160.55,16.39,240.74,25.35,68.86,7.69,138,12.9,206.6,22.83,1.07.15,2.33-1,3.73-4.69L538,671.72c5.09-9,10.92-11.22,20.9-9.61q214.83,34.71,429.82,68.38a15.92,15.92,0,0,0,10.62-1.5L576.2,639c6.62-11.13,6.65-11.31,18.47-8.81q192.62,40.76,385.22,81.61c3.77.8,7.6,1.3,12.38,2.1-2.69-5.41-7.25-5.09-10.77-6Q802.81,660,624.08,612.15c-4.19-1.13-12.28-.1-11.55-6,.69-5.59,8.28-5.75,13.64-5.42a66.23,66.23,0,0,1,13,2.41q180.17,48.09,360.27,96.36c3.33.89,6.4,2.55,11.49.44L641.42,579.83c5.41-12.29,13.57-9,22.4-6.11Q867,639.93,1070.29,705.82,1174,739.48,1277.75,773C1285.92,775.65,1293.67,778.35,1294.74,790Z"/><polygon class="cls-1" points="862.35 122.96 862.68 122.54 862.27 123.03 862.35 122.96"/><path class="cls-1" d="M870.87,114.76l-.65.33.48-.23A1.51,1.51,0,0,0,870.87,114.76Z"/><path class="cls-1" d="M874.06,111.69l-.56-.33a4.94,4.94,0,0,0,.75-.09S874.06,111.69,874.06,111.69Z"/><rect class="cls-1" x="579.2" y="586.61" width="17.82" height="14.85"/><rect class="cls-1" x="562.69" y="577.43" width="27.85" height="7.56"/><rect class="cls-1" x="545.98" y="557.18" width="29.43" height="29.43"/><rect class="cls-1" x="563.81" y="590.12" width="3.51" height="2.03"/><rect class="cls-1" x="562.22" y="590.12" width="13.2" height="7.02"/><rect class="cls-1" x="569.81" y="561.14" width="8.12" height="4.8"/><rect class="cls-1" x="550.04" y="561.14" width="6.88" height="4.8"/><rect class="cls-1" x="550.04" y="523.15" width="12.18" height="12.18" transform="translate(-190.11 348.97) rotate(-30)"/><rect class="cls-1" x="543.55" y="536.05" width="17.15" height="6.81"/><rect class="cls-1" x="556.13" y="547.73" width="13.68" height="6.72"/><rect class="cls-1" x="553.48" y="524.88" width="13.84" height="4.37"/><text class="cls-2" transform="translate(0.5 885.77)">S<tspan class="cls-3" x="55.79" y="0">mart </tspan><tspan x="279.96" y="0">A</tspan><tspan class="cls-3" x="347.29" y="0">i-based Human Interaction Bot</tspan></text></svg>