<svg id="Layer_1" data-name="Layer 1" xmlns="http://www.w3.org/2000/svg" viewBox="0 0 649.6 600.26"><defs><style>.cls-1{fill:#e9e6e8;}.cls-2{fill:#959392;}.cls-3{fill:#bfbdbc;}.cls-4{fill:#a00000;}.cls-5{fill:#4e4e4e;}.cls-6{fill:#ababab;}.cls-7{fill:#010101;}</style></defs><path class="cls-1" d="M360.71,18c-.09-4-2.8-6.13-6-7.26a72.77,72.77,0,0,0-32.35-3.42c-4.19.46-8.35,1.13-12.53,1.66-7.64,1-10.26,3.79-10.44,11.33,0,1.74-.07,3.47-.1,5.21-1.69-.67-.1-4-2.83-3.68-3.31.35-6.84.32-9.83,1.54a22.26,22.26,0,0,1-8.92,2.06c-10.5-.29-20.57,2.77-30.9,3.67-6.63.58-13.19,1.95-19.92,1a137.33,137.33,0,0,0-15.53-1.47c-3-.08-5.05-.77-6.3-3.49,2.47-5.82,7.65-9.29,12-13.91.38,1.17.64,2.17,1,3.12,2.49,6.25,7.86,8.9,14.06,6.44,11.32-4.48,22.61-9,34.18-12.82,5.53-1.81,11.21-3.17,16.74-5,1.3-.43,3.78-.26,3.34-3h85.48c1.45,1.53,3.53,1.58,5.34,2.13,16,4.83,31.34,11.13,46.59,17.81,2.87,1.25,5.88,2.59,9.3,1.19,4.53-1.86,7.83-4.41,6.8-10.58,7.22,5.16,13.88,9.82,17.12,17.78.69,1.7,1.6,3.41,1,5.37A12.8,12.8,0,0,0,448.25,30c-11.16.48-22.24-.73-33.35-1.36-4.17-.23-7.55-2.55-11.47-3-7.3-.91-14.63-1.39-21.87-2.94C374.59,21.17,367.59,19.84,360.71,18Z"/><path class="cls-2" d="M68.59,135.15c.32,18,.55,35.95,1,53.91.18,7.1.68,14.2,1.26,21.28.5,6.14,3.65,11,7.92,15.3a60.35,60.35,0,0,1,8.65,10.28c1.18,1.85,1.65,3.06-.55,4.93-4,3.42-3.55,8.35-2.39,12.84C86.85,263,91.86,271.05,97,279c.84,1.3,2.23,2.39,1.88,4.26-1.25.45-2-.48-2.54-1.11-7.91-9-17.48-16.42-24-26.6-7-10.87-10.87-22.7-10.11-35.64,1.39-24,1-48.08,1.6-72.12.14-5.49.53-11,.8-16.45C66.54,132,65.71,135.53,68.59,135.15Z"/><path class="cls-3" d="M360.71,18c6.88,1.88,13.88,3.21,20.85,4.71,7.24,1.55,14.57,2,21.87,2.94,3.92.49,7.3,2.81,11.47,3,11.11.63,22.19,1.84,33.35,1.36A12.8,12.8,0,0,1,458,33.7c1.23,2.94,1,6,.59,9a2.78,2.78,0,0,0-3.26,1.8c-.63-3.55-.63-3.56-3.72-3-.89.16-.84-.66-1.23-1-4-3.82-12-3.95-15.64-.29l-1.14,1.17c-2,.15-.92-2-2-3-.77,3.18-2.81,3.75-4.71,2.06-3.95-3.52-8.62-1.85-13-2.41l-1.51-.42c-1.3-1.18-2.69-2-4.49-1.08l-1.51-.34c-.36-.89-.83-1.15-1.52-.29l-2.24-.27c-1-1.84-2.34-1.31-3.73-.58l-4.51-.21c-.51-1.28-1-1.29-1.58,0l-6,.16c-2.25-1.08-4.16-.29-6,1.1l-3.23.87a2.23,2.23,0,0,0-2.71,1l-4.19,1.24c-1.41-2.45-4.5-1.93-6.39-3.69-2.11-2-2.88-4.5-3.79-7C360.54,25,360.63,21.46,360.71,18Z"/><path class="cls-4" d="M278.1,324.56a43.06,43.06,0,0,1-22.23,3c-13.69-1.55-27-4.88-39.2-11.53a72.35,72.35,0,0,1-17.61-13.13c-1.25-1.29-1.56-2.19-.73-4.1.9-2.08,2-1.16,3.2-1.17,2.29,0,4.43.17,6.35,1.64s3.82-.44,5.81.05c3.92,1,7,3.8,11.1,4.53,1.46.27,2.68,1.22,4.47.84,3-.65,5.55,1.2,8.13,2.3C251,312.75,264.52,318.67,278.1,324.56Z"/><path class="cls-4" d="M468.1,295.8a17,17,0,0,1-5,8.29,65.07,65.07,0,0,1-22.63,14.72,107.21,107.21,0,0,1-48.75,7.31,39.78,39.78,0,0,1-9-2.16c11.46-3.9,22.23-9.28,33.48-13.48,7.28-2.72,15-3.23,22.26-5.33,3.33-1,7.13-.4,10.29-2.91,4.21-3.35,10.12-1.71,14.88-4C465.19,297.54,467,297.58,468.1,295.8Z"/><path class="cls-3" d="M205,25.12c1.25,2.72,3.34,3.41,6.3,3.49a137.33,137.33,0,0,1,15.53,1.47c6.73.94,13.29-.43,19.92-1,10.33-.9,20.4-4,30.9-3.67a22.26,22.26,0,0,0,8.92-2.06c3-1.22,6.52-1.19,9.83-1.54,2.73-.28,1.14,3,2.83,3.68A48.18,48.18,0,0,1,299.69,36c-1.62-1-2.84-5-5.16-1.42-1.51,2.34-3.2,2.11-5.2,2.16-.25-.39-.5-.38-.75,0-4.24.24-8.47-.89-12.72-.15l-5.23-.44c-1.25-1.4-2.53-1.23-3.83-.07l-6.78.44c-2.39-1.66-4.79.6-7.23-.05a15.15,15.15,0,0,0-10.57.65c-3.31,1.57-6.42-.28-9.39-.74-1.87-.28-4-1.84-6.36-2.07-1.46-.14-3-1-4.38-.38-2.44,1,1.13,2.72-.24,4-4.31-1.94-4.88-1.75-6,1.93a2.29,2.29,0,0,0-.07.36.48.48,0,0,1-.56.35A1.37,1.37,0,0,0,213.58,42h0c-1.66.53-2.77.65-3.35-1.68-.31-1.28-.94-3.68-3.34-3.13-3.91.9-4-1.45-3.79-4.18l.16-.26-.15.27h-.68C202.72,30.19,203.27,27.45,205,25.12Z"/><path class="cls-2" d="M566.91,280.48c2.27-5.38,5.84-10.08,8-15.52a73.93,73.93,0,0,0,4.77-17.24,8.57,8.57,0,0,0-1.66-7.06,2.75,2.75,0,0,1-.15-3.71c1.2-1.89,2.13-4,3.64-5.63,7.31-7.73,12.51-16.42,13.14-27.33a11.9,11.9,0,0,1,.12,9.74c-1,2.37-3.23,4.5-1.78,7.48l-.16.27.15-.28c6.9.27,8.08,2.22,5.11,8.44-.48,1-1,2.24-.44,3.19s1.34-.73,2.17-.34c.46,4.59-1.29,8.74-2.69,12.93-2.81,8.39-8.37,14.93-14.38,21.15q-6.06,6.29-12.14,12.55C568.64,277.48,568.56,281.14,566.91,280.48Z"/><path class="cls-3" d="M157.31,261.82c-3.76-3.72-5.23-8.8-7.79-13.24-.59-1.23-1.18-2.47-1.78-3.7a4.44,4.44,0,0,0,.69,4.45l.64,2.14c.51,1.74,1,3.85-1.2,4.41s-4.84.81-5.92-2.29c-1.84-5.3-3.68-10.6-5.59-15.87-3.4-9.34-4.73-19.23-7.58-28.72-.55-1.83,1-3.26,1-5,1.86-.89,3.49-2.34,5.73-2.25a251.73,251.73,0,0,0,8.43,35.84c.77,2.54,1.43,5.15,3.41,7.27-4.11-17.68-11.68-34.92-6.32-53.63.65.12,1.26.39,1.35,1.09.65,5,2.33,10.09-.78,14.89a1,1,0,0,0,0,1.32c2.92,3.89,3.51,8.43,3.91,13.1a5.65,5.65,0,0,0,2.83,4.87,8.46,8.46,0,0,0,.43,4.34c2.61,7.34,5.06,14.74,8.44,21.78-.35.31-1,.77-1,.91C157.33,256.2,156.77,259.09,157.31,261.82Z"/><path class="cls-5" d="M631.53,590.43c-5.71-1.15-11-3.61-16.25-5.92-12.86-5.61-25.87-10.93-38.49-17-18.12-8.78-37.49-14.45-55.62-23.16-7.27-3.49-14.82-6.38-22.16-9.72a7.28,7.28,0,0,0-8,.77l0,0c.78-4.11,4.39-5.13,7.41-6.79a1.64,1.64,0,0,0,1.59.71c1.93,1.76,4.64,1,6.87,2.34A122.56,122.56,0,0,0,523,540c8.21,3.37,16.69,6.24,24.77,9.79,9.68,4.26,19.27,8.82,29.07,12.83,3.21,1.32,5.8,4.46,9.76,3.88a2.69,2.69,0,0,1,.62.22c.11,2.33,1.29,2.73,3.22,1.78l1.21.53c0,1.31.61,1.69,1.77,1l1.33.47c-.35,2.64,2.15,2.47,3.44,3.16,3.71,2,7.28,4.51,11.72,4.76l1.18.46c.22,1.66.92,2.45,2.62,1.51l1.9.73c0,1.2.45,1.58,1.45.66l2.24.91c2.32,3,5.74,4,9.11,5.09.55,1.28,2.23.56,2.89,1.64Z"/><path class="cls-5" d="M168.61,533.72a2.18,2.18,0,0,1-2.43.53c-4.94-1.52-9.27.69-13.67,2.23-6.59,2.32-13.17,4.65-19.66,7.2-11.68,4.59-23.55,8.68-34.87,14.18-18.45,9-37.08,17.56-56,25.4-6.1,2.52-12.11,5.24-18.21,7.75-1.2.49-2.46,1.37-3.92.72.75-1.14,2.11-1.21,3.18-1.8,4.05-2.22,8.56-3.61,12.23-6.54l16.39-7.52.87-.51,11.74-5.82c1,.78,1.65-.14,2.38-.59,1.64-.05,3.47.21,3.58-2.26l1.25-.52c2.24,1,3.37.17,3.5-2.21l1.4-.89h1.53c1.65.11,3.27.18,2.93-2.27l-.06-.16,1.63.16c1.16,0,2.37.12,2-1.68l2.23-.94c1.45.78,2.69-.17,3.86-.67,7.06-3.07,14-6.37,21.11-9.37,7.78-3.29,15.56-6.63,23.54-9.35,4.46-1.52,8.5-3.77,12.8-5.51,5.89-2.37,11.87-5.27,18.51-2.4l-.06,0,.81.81-.06-.06.81.81-.07-.06.82.82-.05-.08A.75.75,0,0,1,168.61,533.72Z"/><path class="cls-6" d="M476.89,449.18c4.83-25.59,12.79-50.28,21.59-74.72,1.29-3.59,2-7.4,3.83-10.78l1.48,1.49.28.16-.28-.16c.07-.48,0-1.11.25-1.4.53-.56.91.08,1,.49.32,1.33-.2,2.6-.36,3.88-.43,3.49-3.82,5.37-4.22,8.76a20.4,20.4,0,0,1-2,6.25c0,.11-.08.21-.13.32l.19-.27,3,1.47c.57,1.86-2,3.24-.81,5.2-1.68,5.57-3.15,11.21-5.08,16.69-2.63,7.43-5.56,14.76-7.71,22.36-2.11.77-1.83,2.87-2,4.35-.74,6-4.43,10.38-7.27,15.26C478.17,449.33,477.7,449.58,476.89,449.18Z"/><path class="cls-3" d="M170,409.43c-6.06-16.77-11.46-33.76-16.34-50.91-.33-1.16-.6-2.26,1.15-2.42s3.49-1.81,4.86.77c2.07,3.86,3.27,8,4.71,12.13,4,11.48,7.89,23,11.19,34.74.81,2.87.84,5.95,2.36,8.63-1.75.25-1.67-1.4-2.4-2.23-.41-.48-.84-2.09-1.58-1.1C172.59,410.85,171.24,408.81,170,409.43Z"/><path class="cls-2" d="M270.77,459.56c1.22,5.55,2.32,11.13,3.69,16.64,4.57,18.36,5.7,37.16,7.38,55.9.76,8.44,2.69,16.71,4.1,25.06,1.2,7.14,2.32,14.29,3.57,22a43.16,43.16,0,0,1-11-9.68c-.59-.75-1.94-1.75-.56-2.84,4-3.17,3.13-7.55,3-11.7-.31-8.48-1.16-16.91-2.06-25.34-1.13-10.41-.79-20.92-2-31.34-1.3-11-3.94-21.76-6.52-32.5a38.51,38.51,0,0,1-.48-6.09Z"/><path class="cls-1" d="M591.61,569l-1.21-.53a2.65,2.65,0,0,0-3.22-1.78,2.69,2.69,0,0,0-.62-.22c-.25-.41-.41-1-.78-1.2-10.34-5.94-20.62-12-31.31-17.34l-25.65-12.79c-.06-.35-.13-.71-.19-1.07a21,21,0,0,1,6.23,1.93c1.29.53,2.62.89,3.11-1l.45-1.54,2.86,1.95c-.37.92-2.62.38-1.84,2,.67,1.42,1.78.56,2.71,0a6.19,6.19,0,0,1,1.35-.48h0c.55,2.93,3.07,2.56,5.08,3.05a128.91,128.91,0,0,1,15.11,8.52,18.26,18.26,0,0,0,8.91,5l4.6,2.43c.41,1.7,1.73,1.91,3.17,1.93a.56.56,0,0,1,.6.23c.19,1.2.92,1.41,1.95,1.06l4,2.11a2.76,2.76,0,0,0,3.19,1.85l2,1.16c.57,1.47,1.77,1.85,3.19,1.84L598.9,568a3.18,3.18,0,0,0,3.16,1.83,8.51,8.51,0,0,1,3.58,2,19.14,19.14,0,0,0,8.44,4.78l2,1.24a1.25,1.25,0,0,0,1.73,1,.65.65,0,0,1,.58.31c.47,1.53,1.65,2,3.09,2h0l.75,1.53h-3l-2.24-.9a1,1,0,0,0-1.45-.67l-1.9-.72c-.54-1.07-1.28-1.81-2.62-1.52l-1.18-.46c-4.45-3.79-9.87-5.74-15.16-7.92l-1.33-.46C593,569.23,592.53,568.74,591.61,569Z"/><path class="cls-3" d="M507,87.64c5.93,9.43,8.84,20.2,13.41,30.24,1.75,3.84,3,7.92,5.2,11.55.6,1,2,2.06.35,3.15-1.34.9-2.68.3-3.65-.85-1.36-1.62-2.63-3.32-3.94-5-5.52-7-11.06-14.09-16.55-21.16a26.28,26.28,0,0,1-1.7-2.86c.75,0,1.85,0,1.9-.72.23-3.67,4.51-5.93,3.4-10.07-.23-.85.59-1.54,1.4-2l.26.15-.27-.15C506.5,89.18,505.7,88.33,507,87.64Z"/><path class="cls-6" d="M516.32,193.44l.15-2.23c.77-.44.7-1,.13-1.5,0-1.25,0-2.51.08-3.76.56-.64.14-1.19-.17-1.76l3.15-19.5a.24.24,0,0,1,.24.27,5,5,0,0,1,.49,2.87,155.17,155.17,0,0,0,.15,24.2,14.74,14.74,0,0,1-.3,2.94c-3.18,3-.71,6,.07,9l0,0a6.48,6.48,0,0,0-.52,2.16c.64,5.86-.26,11.56-1.68,17.21a1.32,1.32,0,0,0,.64,1.59,9.46,9.46,0,0,1-1.36,4.51c-1.47-.18-1.25,1.2-1.81,1.9-1.71,2.14-1.15,5-3.23,7.37-3,3.47-4.85,8.25-5.76,12.89-.56,2.91-2.84,5.4-2.06,8.59a20.39,20.39,0,0,1-11.12,10.61,4.22,4.22,0,0,1,.75-2c1.13-2.34,3.76-2.95,5.29-4.68,3.6-4.09,4.66-9.34,5.8-14.5q2.39-8.52,4.79-17.06c.91-.27,1.59-.62.52-1.56.09-.48.17-1,.25-1.43.94-.3,1.56-.69.45-1.58l.79-2.25c2.49-1.8,2.38-4.37,2.09-7,.08-.9.16-1.81.25-2.72,2.34-2.69,2.63-5.73,1.48-9l0-1.49c2.64-1.41,1.11-3.68,1.15-5.62C516.72,197.73,517.71,195.46,516.32,193.44Z"/><path class="cls-2" d="M195.58,500.2c-.87-.48-1.37-.08-1.78.68-4.36,8-10.64,14.34-17.53,20.21-2.91,2.48-5.46,2.62-8.4.62-2-1.39-4.45-2.25-5.93-4.38l2.75.58c2,.23,3.11-.6,3.26-2.63l.05,0c5.45-2.46,9.91-6.26,14-10.5,3.62-3.76,6.29-8.41,10.69-11.45.78,1.7,1.56,3.41,2.33,5.11Z"/><path class="cls-6" d="M593,221.21c-1.45-3,.75-5.11,1.78-7.48a11.9,11.9,0,0,0-.12-9.74l.45-23.94c2.11,1,3.85,1.22,3.09-2a56.19,56.19,0,0,1-1.55-15c0-.68-.61-1-1.25-1.19l0-2.94c1.35,0,2.1-.55,2.08-2a1.63,1.63,0,0,1,1.41-1.86l1.21.77a20.12,20.12,0,0,1,.1,6.05c-2,2.76-2.12,5.5.1,8.2l0,15.79c-2.07,2-2.15,4,0,6q0,4.14,0,8.28c-2.14,1-2.11,1.95,0,3l-.11,6.79c-1.93,2-1.91,4,0,6a29.53,29.53,0,0,1-.41,16.56c-.83-.39-1.59,1.29-2.17.34s0-2.18.44-3.19c3-6.22,1.79-8.17-5.11-8.44ZM597.34,193c-.09.19-.28.42-.22.56s.35.18.54.26c.08-.19.27-.42.22-.55S597.53,193.12,597.34,193Z"/><path class="cls-6" d="M170,409.43c1.23-.62,2.58,1.42,4-.39.74-1,1.17.62,1.58,1.1.73.83.65,2.48,2.4,2.23,4.28,11.09,6.3,22.75,8.66,34.32.56,2.75,1,5.53,1.56,8.89-4.39-2.69-7.56-5.09-8.48-10.24C177.49,433.12,173.53,421.32,170,409.43Z"/><path class="cls-6" d="M420.62,526.16c-.67,2.29-2.25,4-3.74,5.74a2.54,2.54,0,0,0-3.06-2.54l-.33-.14.29.19c-1.22,1.22-1.63,0-2.2-.74,1.36-2.69,2.91-5.16,6-6.24,2.08-.73,2.27-2.85,2.82-4.56,1.86-5.78,3.57-11.6,6.26-17.07a38.19,38.19,0,0,1,13.44-15.58c1.18,3.77-2.11,6-3.1,9-.39,1.17-2.13,2-.83,3.56-2.66,6-4.77,12.38-8.94,17.6-.67.84.08,2.06-1.12,2.46l-1,1.2.13-.1c-1.76.33-1.71,1.66-1.65,3l0,0c-2.07.08-2.41,1.4-2.22,3.1l.06-.11Z"/><path class="cls-6" d="M215.81,40.21a2.29,2.29,0,0,1,.07-.36c1.09-3.68,1.66-3.87,6-1.93,1.37-1.26-2.2-3,.24-4,1.42-.59,2.92.24,4.38.38,2.38.23,4.49,1.79,6.36,2.07,3,.46,6.08,2.31,9.39.74a15.15,15.15,0,0,1,10.57-.65c2.44.65,4.84-1.61,7.23.05-5.87,1.15-11.77,2.2-17.61,3.47-7.56,1.64-9.21,4-8.72,11.67.1,1.67.49,3.43-.61,5.51-3.19-4.87-6.09-9.45-9.15-13.91C222,40.43,219.27,39.21,215.81,40.21ZM240,39.28a.92.92,0,0,0-.28-.09s-.06.15-.09.24a1.09,1.09,0,0,0,.28.08S240,39.36,240,39.28Z"/><path class="cls-3" d="M140.28,123.39c5.05-11.75,8.82-24,14.2-35.64,4.09,2,5.44,5.4,5.1,9.71,0,.1-.09.21-.14.31l.18-.27c.94,1.68-.6,4.25,1.93,5.35-2.19,3.81-5.24,7-7.91,10.43-2.79-1.15-2.23.84-2.19,2.34l.06-.05c-3.1-.11-2.95,3.75-5.41,4.41-.18-.25.32-1-.52-.75l.53.74c-.21,1.85-.22,3.78-3.14,2.61C142.29,122.31,141.19,123.09,140.28,123.39Z"/><path class="cls-1" d="M86.58,558.18l-2.23.94L83,559.2c-1,.13-2,.15-2.3,1.44l.06.16a2.45,2.45,0,0,0-2.31.6c-1,.22-2.1.26-2.15,1.67l-1.4.89a3,3,0,0,0-3.5,2.21l-1.25.52a3.58,3.58,0,0,0-2.94.72c-1.33.26-2.65.52-3,2.13l-11.74,5.82c-.51-.21-.78,0-.87.51l-16.39,7.52-.06-1.5c.51-.61,1.61-.63,1.68-1.69l.73-.45a5.13,5.13,0,0,0,4.51-2.44l7-3.94c3.56-.33,6.22-2.33,8.67-4.7a.87.87,0,0,1,.63-.31c3.3-1.13,6.62-2.21,9.15-4.81l1.2-.52a3.13,3.13,0,0,0,3.25-1.78l.68-.37a15.21,15.21,0,0,0,5.5-2.12c7.65-4.07,15.32-8.09,23-12.17,2.68-1.42,5.64-2.43,7.57-5a.59.59,0,0,1,.62-.27l10.54-4,6.79-2c-.35,1-.69,1.91-1,2.86l-1.3.09a12.84,12.84,0,0,0-7.7,4.39l-1.2.26a2.81,2.81,0,0,0-3,1.41c-4.19,2-8.54,3.71-12.52,6.06C95.42,553,90.26,554.35,86.58,558.18Z"/><path class="cls-6" d="M114.21,267.85c-3,4.27-6,8.39-8,13.14-.76,1.78-1.61,1.95-2.91.43a71.67,71.67,0,0,1-15.62-29.88,11.19,11.19,0,0,1,1.55-9.15c1.67,1.09,1.54,2.88,2.07,4.24,2.75,7.09,5,14.39,9.27,20.81,4,6.14,5.32,6.36,11.18,2C112.55,268.89,113.39,268.39,114.21,267.85Z"/><path class="cls-2" d="M107.68,339.94c-10.9-7.09-16-17.74-17.92-30.09-.74-4.65,3.64-10.25,8-11.3.86-.2,1.47-.08,1.79.78a11.15,11.15,0,0,1,.78,2.48,55,55,0,0,0,9.48,24.42c-1.5-.31-2.12-1.54-2.94-2.65-2.34-3.16-4.78-6.24-7.18-9.35-.71-.91-2.06-2.15-2.49-.63-.7,2.51-2.46,5.14-1.5,7.75,2.26,6.14,5.22,11.95,10.6,16.1C106.94,338.19,108,338.71,107.68,339.94Z"/><path class="cls-6" d="M565.33,333.05a4.68,4.68,0,0,1-2.24,2.15l-1.2-.83c-1-.71-1.25-2.59-3.15-1.88a3.41,3.41,0,0,0-2.52,3.61,6.45,6.45,0,0,1-.7,2.06,4.09,4.09,0,0,0-4.17,1.86c-2.19,3.23-5.28,4.14-8.88,4.13.54-2.89,3.07-4.26,4.87-6.14a45.85,45.85,0,0,0,4.29-5.16c3.12-.92,6.29-2.75,7.11-5.56,1.5-5.12,5.11-9,7-13.76,1.15-2.86,4.68-2.9,7.41-3.48,1-.22,1.06.84.82,1.58-1,3.05-1.48,6.2-3.11,9.12C568.72,324.66,565.86,328.36,565.33,333.05Z"/><path class="cls-2" d="M124.27,538.25l1.3-.09c2.29.22,4-1.28,5.78-2.23,3.87-2,7.41-4.43,11.86-5.57,2.62-.68,6.34,0,8.14-3.23a1.52,1.52,0,0,1,1.54-.4l1.46.47c1.65,1.24,3.52.46,5.3.62l1.48.06c2,.51,4.3.61,5.27,3-6.64-2.87-12.62,0-18.51,2.4-4.3,1.74-8.34,4-12.8,5.51-8,2.72-15.76,6.06-23.54,9.35-7.09,3-14,6.3-21.11,9.37-1.17.5-2.41,1.45-3.86.67,3.68-3.83,8.84-5.19,13.24-7.81,4-2.35,8.33-4.07,12.52-6.06,1.82,1.26,2.5.1,3-1.41l1.2-.26C119.81,542.36,122.89,541.79,124.27,538.25Z"/><path class="cls-2" d="M565.33,333.05c.53-4.69,3.39-8.39,5.57-12.3,1.63-2.92,2.09-6.07,3.11-9.12.24-.74.19-1.8-.82-1.58-2.73.58-6.26.62-7.41,3.48-1.93,4.81-5.54,8.64-7,13.76-.82,2.81-4,4.64-7.11,5.56a61.2,61.2,0,0,0,13.11-31.7c.25-2.26,1.46-2.78,3.65-2.11,6,1.85,9.34,7.18,8,13.23A41.38,41.38,0,0,1,565.33,333.05Z"/><path class="cls-2" d="M383.76,530.12c-.89,8.42-1.69,16.85-2.71,25.26-.47,3.84-.33,7.52,1.72,10.85,1,1.56.73,2.62-.23,4-2.42,3.51-5.87,5.63-9.87,7.61a46.11,46.11,0,0,1,1.88-16.22c3.18-11.17,5.1-22.54,7-33.94a3.18,3.18,0,0,1,.82-2C383.8,526.86,382.31,528.94,383.76,530.12Z"/><path class="cls-3" d="M160.48,339.47c.58-.05,1.08,0,1,.78l1.92.93c7.35,3.48,14.47,7.7,22.14,10.25,7.45,2.48,12.49,6.76,15.71,13.63l-3.45,1.65c-1.8-4.21-5.22-5.74-9.49-7.12-10.34-3.36-19.2-9.47-27.2-16.8Z"/><path class="cls-6" d="M465.54,364.42,457,378.74c-2.42,1.37-4.13,3.17-3.75,6.22l-.1.14c-2.61-.51-1.66,1.46-1.84,2.64l0,0c-3.56,2-5.11,5.33-5.93,9.12l0,0-.91.55c-2.34-.95-2.46-2.17-1.3-4.48,5.63-11.21,13.07-21.26,19.76-31.8,3.54-5.57,8.48-7.26,13.8-9.26,2.74,1.84-.52,4.32.67,6.33l-.64-.1a8.14,8.14,0,0,0-6.72.85C468.29,360,463.39,359.68,465.54,364.42Z"/><path class="cls-5" d="M500.88,520c-4.72,5.29-8,5.52-14.61.82a47.82,47.82,0,0,1-13.59-15.06c-1-1.67-1.42-4.15-4.16-4.16l.9-2.55c1.33-1.33,1.28-3.28,2.17-4.8l.79-.24,0,0a4,4,0,0,0,.7,3.45c4.51,7.27,9.91,13.79,17,18.5C493.25,518.09,496,522.33,500.88,520Z"/><path class="cls-6" d="M500.88,520c-4.9,2.31-7.63-1.93-10.75-4-7.12-4.71-12.52-11.23-17-18.5a4,4,0,0,1-.7-3.45c1.42-.21,2.16.66,3.07,1.6a56.19,56.19,0,0,0,5.29,4.56,1.9,1.9,0,0,0,2.07.45c.93-.5.28-1.26.18-1.94a14.09,14.09,0,0,1,0-1.84c1,1.18,2,2.38,3,3.54.67.76,1.42,1.43,2.13,0,.59.65,1.4,1.23.81,2.29-1,.06-.84.66-.62,1.28,1.36,3.82,6.52,7.77,9.53,7.3h0c-.74,1.13.12.88.73.86-2.13,4.64-1.32,5.93,3.79,6l-.75,1.5Z"/><path class="cls-6" d="M106.34,337.45c-5.38-4.15-8.34-10-10.6-16.1-1-2.61.8-5.24,1.5-7.75.43-1.52,1.78-.28,2.49.63,2.4,3.11,4.84,6.19,7.18,9.35.82,1.11,1.44,2.34,2.94,2.65l.16.2c.06,1,.3,1.92,1.57,2a20.28,20.28,0,0,1,3.82,5.15C112.28,334.66,109.61,336.76,106.34,337.45Z"/><path class="cls-6" d="M520.84,224.85c2.78-8,2.66-16.53,4.9-24.61,1.57-1.17,2.71-3,5-3,3.68,10.36.57,20.15-2.48,29.95-.26-.26-.61-.48-.75-.79-1.56-3.35-2.89-3.54-5.26-.8C522.17,225.68,521.32,225.11,520.84,224.85Z"/><path class="cls-2" d="M382.75,522.68c2.06-18.41,5.47-36.58,8.7-54.8,1.29-7.26,4.37-12.87,8-18.73,2.89-4.63,5.32-9.55,7.95-14.34l2,1.63A142.51,142.51,0,0,1,396,457.51a10.07,10.07,0,0,0-1.71,4.74q-1.93,11.36-4.43,22.59c-2.74,12.22-3.28,24.71-4.74,37.08Z"/><path class="cls-2" d="M143.77,140.93a2.36,2.36,0,0,1,.77-2.18c.44-.17.69-.38.16-.75l1.89-5.09c.39,19.76,3.56,38,7.54,56.14a13.82,13.82,0,0,1,.19,5.58c-.2,1.11-.55,2.29-1.83,2.6s-1.63-.91-2.11-1.71c-.69-1.17-1.26-2.4-1.88-3.61a.84.84,0,0,1,.54-.09c3.89,1.6,1.72-1.76,2.33-2.84.14-2.65-2.16-4.81-1.47-7.56a13.27,13.27,0,0,0-1.45-6l-.09-1.51c-1.72-9.62-3.89-19.18-3.08-29.09C145.39,143.51,146.34,141.43,143.77,140.93Z"/><path class="cls-6" d="M157.28,425.92l7.72,30.3a50.5,50.5,0,0,1-10.45-11.5c-2.34-3.57-1.66-8.41-2.41-12.67-.54-3.06-.79-6.16-1.17-9.25,1.8.19,3.95-.4,4.44,2.39C155.55,426,156.58,425.85,157.28,425.92Z"/><path class="cls-3" d="M520.84,224.85c.48.26,1.33.83,1.4.73,2.37-2.74,3.7-2.55,5.26.8.14.31.49.53.75.79q-2.6,8.61-5.21,17.21a15,15,0,0,0-5.86,4.82c-1.16,1.53-2.45,2.34-4.38,2-.24-2.1.83-3.91,1.62-5.64C517.45,238.91,518.54,231.7,520.84,224.85Z"/><path class="cls-2" d="M157.15,252.62c-3.38-7-5.83-14.44-8.44-21.78a8.46,8.46,0,0,1-.43-4.34c-.8-4.36-1.93-8.69-2.33-13.09-.56-6.09-1.95-12.18-.86-18.36,1.23,3.72,1.12,7.61,1.48,11.43a136.62,136.62,0,0,0,17.16,55.6c.79,1.4,1.84,2.66,2.77,4-.15,1.15.35,1.63,1.49,1.43l0,.05c-.26,1.54.56,2.52,1.7,3.35.79.58,1.21,1.22.34,2.08-3.23-1.65-7.21-2.16-9-6A39.87,39.87,0,0,0,157.15,252.62Z"/><path class="cls-6" d="M237.53,518.92c-4.12-6-6.68-12.69-8.92-19.53,1.11-1.15,0-1.92-.49-2.78-.13.41-.34.55-.7.23l1.43-2.1c2.46,2.57,2.46,2.57,6.52,3.14,4,6.3,5.16,13.86,8.9,20.28.68,1.17,1.21,2.44,1.8,3.66C242.66,522.52,240.69,519,237.53,518.92Z"/><path class="cls-6" d="M197.77,366.71l3.45-1.65c7.08,9.13,13,19.08,19.45,28.62,1.44,2.12-.83,2.48-1.68,3.39-1.35,1.45-1.88-.28-2.44-1C209.22,387,203.66,376.74,197.77,366.71Z"/><path class="cls-2" d="M237.53,518.92c3.16,0,5.13,3.6,8.54,2.9,7.89,6.29,12.75,14,11.86,24.7-2.45-.67-2.78-2.8-3.82-4.22-4.86-6.63-10.3-12.83-14.67-19.81C238.73,521.35,238.16,520.11,237.53,518.92Z"/><path class="cls-5" d="M204.63,408.66c3.53,8.49,5.64,17.42,8.22,26.21.37,1.24.26,2.46-1.31,3-2.6,1-4,3.18-5.1,5.58-.3-.22-.65-.41-.63-.47,3-8.47-1.25-15.49-4.43-22.74-.67-1.53-2.93-3.5.9-4.3,1-.2.58-1.44.37-2.29-.37-1.43-.68-2.88-1-4.32Z"/><path class="cls-2" d="M499.77,102.45c-5.58-7.46-6.91-16-6.23-25,.11-1.41,1.47-2.27,2.13-3.43.5-.89,2.45-1.16,1.38-2.8l-.06.06a3.28,3.28,0,0,1,3.13,2.08c1.38,3,2.84,5.91,4.27,8.86-2.46-.12-5.07.11-5.67,2.89-.54,2.48-.83,5.31.3,7.7A12.84,12.84,0,0,1,499.77,102.45Z"/><path class="cls-3" d="M519.66,164.69l-3.15,19.51a1.88,1.88,0,0,0-.71,1.77,22.4,22.4,0,0,1-4.53,6.73,8.48,8.48,0,0,1-.88-6c1.64-8.75,4.25-17.29,5.14-26.22.35-3.48-.82-7.33,1.78-10.46,1.12.95.65,2.26.76,3.44a13.67,13.67,0,0,0,2.35,7.13,7.29,7.29,0,0,1-.14,3.68Z"/><path class="cls-5" d="M82.8,195c-2.4-4.38-2.87-9.29-3.24-14.06a342.6,342.6,0,0,1-.14-52.64c.17-2.36,0-4.74,0-7.71,1.56,1.81,1.2,3.44,1.21,4.92,0,10.35,0,20.71.08,31.07a200.94,200.94,0,0,0,3.71,37.82Z"/><path class="cls-6" d="M161.55,102.85c-2.53-1.1-1-3.67-1.93-5.35l0,0c.34-4.31-1-7.73-5.1-9.71,2.16-4.8,4.38-9.59,6.47-14.42.67-1.57,1.48-1.29,2.54-.59s1.87,1.2,2.81,1.79a16.69,16.69,0,0,1-.52,4.75,116.22,116.22,0,0,0-4,18.29,3.46,3.46,0,0,0,1,3.23A3,3,0,0,1,161.55,102.85Z"/><path class="cls-5" d="M510.65,194.36c-.7,1.23-.92,3.2-3,2.66-1.83-.49-2.35-2.11-2.22-3.87.64-8.45,2.39-16.73,3.75-25.06,1.75-10.8,4-21.53,4.51-32.5a2.83,2.83,0,0,1,.85-2.33c.82.33,1,1.06,1.14,1.78-.76.54-.79,1,.12,1.43l0,0c-.54,4.54-.88,9.12-1.68,13.62-1.6,9-1.6,18.21-4.12,27.14-1.18,4.16-2.5,8.59-1.81,13.17C508.47,192.11,508.34,193.94,510.65,194.36Z"/><path class="cls-6" d="M502.81,444c2.68-11,5.08-22,8.74-32.68a64.48,64.48,0,0,1,3.45-8.57l-1.76,17.91c-.49-.4-1.12-1.44-1.18.24-.09,2.54.42,5.19-1.95,7.2-.44.37-.28,1.68-.1,2.49.82,3.77-.45,7.19-1.4,10.92-1.35-.61-1.11-2.58-2.41-2.37s-.75,1.89-1.35,2.77S505,444.73,502.81,444Z"/><path class="cls-2" d="M562.07,271.3c5.62-7.8,8.78-16.63,10.87-25.92.19-.87.17-2.22,1.45-2.28,1,0,1.29,1,1.7,1.78.52,1,1.29,1.76,1.11,3-1.14,8.44-4.6,15.91-9.39,22.84-1.86.18-2.15,2.14-3.44,3.12C563.47,273.1,563.4,271.61,562.07,271.3Z"/><path class="cls-3" d="M242.42,422.35c-1.31-2.39-2.56-4.84-4-7.17a12.22,12.22,0,0,0-2.8-3.47c-3.71-2.8-3.78-2.75.08-5.9a13.66,13.66,0,0,0,3.67-4.63c4.23,6,6.63,12.54,8.5,19.29Z"/><path class="cls-5" d="M580.33,198c.87-6.9,3.16-13.51,3.91-20.47.87-8.06,1.73-16.12,2-24.21.3-10.73,1.51-21.43,1-32.18,2.06,20.16,1.29,40.29-1.08,60.35-.67,5.6-1.57,11.33-4.33,16.47Z"/><path class="cls-6" d="M424.48,416.74l-.05.15c-.7,0-1.58-.21-1.88.57s.5.86,1.06,1l-1.37,2.29c-2.88.15-6.25-.56-5.79,4.36.1,1.08-2,1.17-3.08,1.62l1.35-3.06c2-.57.93-2.32,1.39-3.48.94-6.66,3.47-12.8,6.2-19,2.25,1.44,3.85,3.49,5.68,5.3,2.33,2.31,2.57,4.22-.5,6l-.77,1,.08-.05C424.14,413.2,424.2,414.89,424.48,416.74Z"/><path class="cls-5" d="M461.1,415.41c3.23.91,3.6,2.23,2,5.48-3,6.17-6.36,12.42-6,19.84-4.8-2.84-5.69-4.38-4.48-9,1.44-5.53,3.23-11,4.87-16.45C458.66,415.82,459.94,413.8,461.1,415.41Z"/><path class="cls-3" d="M192.68,493.28c-4.4,3-7.07,7.69-10.69,11.45-4.08,4.24-8.54,8-14,10.5l-.94-3.28A104.27,104.27,0,0,0,182,494.7c.68.62.09,3.14,1.29,2.06s3.36-1,4.31-3.11C188.45,491.68,190.75,490.34,192.68,493.28Z"/><path class="cls-3" d="M106.34,337.45c3.27-.69,5.94-2.79,9.06-3.86a3.38,3.38,0,0,1,1.66,2.11c-.51.25-1.23.24-1.26,1a.39.39,0,0,0,.25.25c.8,0,.79-.76,1-1.26a5.06,5.06,0,0,1,2.2,2.39c-1.3,2.58.7,2.16,2.1,2.3,2,2.93,5.11,5,6.71,8.27l.09-.06a40.69,40.69,0,0,1-18.9-7.21c-.52-.34-1.3-.81-1.08-1.74l1-.08-.12-.37-.89.45L108,340l-.35-.06C108,338.71,106.94,338.19,106.34,337.45Z"/><path class="cls-6" d="M289.33,36.75c2,0,3.69.18,5.2-2.16,2.32-3.59,3.54.4,5.16,1.42l.7,11.58a56.32,56.32,0,0,0-24.53-11c4.25-.74,8.48.39,12.72.15h0c.11.68-.17,1.94.73,1.78,1.11-.2.13-1.15,0-1.78Z"/><path class="cls-1" d="M502.89,526.29c1.25-2,3.47-2.3,5.45-2.74,6.11-1.37,12.17-1.65,17.87,1.65,2.36,3.15,5.2,5.59,9.23,6.28l0,0,.45,2.41c-2.42-1.1-4.84-2.23-7.29-3.29-1.38-.6-2.82-1.12-3.64.84h0l-.81-.21c-1.81-1.93-4.15-2.52-6.67-2.69-.27-.85-.74-1.39-1.73-1.11l-12.63-1Z"/><path class="cls-3" d="M149,191.82a.84.84,0,0,0-.54.09c-.89-1.56-1.83-3.1-2.67-4.68-.49-.94-1-1.15-1.85-.45-1.28-.95-.46-2.15-.52-3.3-.17-3.72.57-7.62-1.66-11-.05-3.49-.09-7-.14-10.47,2.06-.17,2.65.91,3.08,2.82.73,3.2.09,7,3.62,9.16l.09,1.51c-.82,2.3-.71,4.38,1.45,6-.69,2.75,1.61,4.91,1.47,7.56C149.71,189.2,149.46,190.58,149,191.82Z"/><path class="cls-2" d="M510.65,194.36c-2.31-.42-2.18-2.25-2.45-4-.69-4.58.63-9,1.81-13.17,2.52-8.93,2.52-18.13,4.12-27.14.8-4.5,1.14-9.08,1.68-13.62A6.14,6.14,0,0,1,518,141c-1.65,2.88-.22,6-.64,8.95-2.6,3.13-1.43,7-1.78,10.46-.89,8.93-3.5,17.47-5.14,26.22a8.48,8.48,0,0,0,.88,6Z"/><path class="cls-5" d="M512,225.69c-.26.75-.52,1.5-.79,2.25a1.22,1.22,0,0,0-.45,1.58c-.08.47-.16.95-.25,1.43a1.27,1.27,0,0,0-.52,1.56q-2.4,8.53-4.79,17.07c-2.17.49-1.43,3.26-3.18,4.08.06-4.1,2.25-7.58,3.41-11.35,4.32-14.09,7-28.51,9.09-43.08.28-2-.13-4.28,1.79-5.79,1.39,2,.4,4.29.69,6.43-2.18,1.5-1.13,3.66-1.15,5.61l0,1.49c-1.73,2.8-1.75,5.88-1.48,9-.09.91-.17,1.82-.25,2.72C512.14,220.65,512.15,223.19,512,225.69Z"/><path class="cls-1" d="M152.89,526.73a1.52,1.52,0,0,0-1.54.4A31.7,31.7,0,0,0,137,529.67l-8,1-.88-1.94c2.93-2.16,5.82-4.37,9.28-5.65a1.46,1.46,0,0,0,2-.62l1.47-.36a1.36,1.36,0,0,0,2.18-.16h2.29c.44.62.92.72,1.44.08a11.29,11.29,0,0,1,4.44.54C152.49,523.7,155.7,524,152.89,526.73Z"/><path class="cls-2" d="M176.34,52.23c-1.55,6.84-3.12,13.67-4.64,20.52-.36,1.62-1.16,1.72-2.37.91a2.59,2.59,0,0,0-.33-.17c-5.54-2.68-5.72-3.15-2.38-8.18,3-4.49,6.11-8.89,9.17-13.33Z"/><path class="cls-6" d="M202.42,33h.67c-.22,2.73-.12,5.08,3.79,4.18,2.4-.55,3,1.85,3.34,3.13.58,2.33,1.69,2.21,3.35,1.68-1.28,1.67-2.61,3.31-3.8,5s-2.08,3.37-3.42,5.57C202.59,46.29,201.05,40,202.42,33Z"/><path class="cls-6" d="M413.86,38.05c4.36.56,9-1.11,13,2.41,1.9,1.69,3.94,1.12,4.71-2.06,1.1.92,0,3.11,2,3-2.25,4.54-4.06,9.33-8,14.3,0-2.47,0-3.88,0-5.29-.05-6.91-1.3-8.63-7.87-10.92C416.41,39,415.14,38.51,413.86,38.05Z"/><path class="cls-6" d="M242.42,422.35l5.47-1.88c3.64,8.06,9,15.19,12.52,23.32-.3.81-.94.81-1.63.7a142.5,142.5,0,0,0-14-17.91A21.87,21.87,0,0,1,242.42,422.35Z"/><path class="cls-5" d="M246.56,484.42c3,3.48,3.86,8.26,2.17,11.24-1.3,2.3-2.64,2.79-4.47.53a14.18,14.18,0,0,1-2.93-6,64,64,0,0,0-5.82-16.11c-2-3.92-1.38-8.52-3.16-12.61,1.93.41,2.57,2.09,2.66,3.59.27,4.93,2.94,8.28,6.59,11.18,1.35,1.07,2.68,2.29,3,4.18l-.33.31c-1.36-.79-2.18-2.61-4.32-2.37,1.34,4.74,2.56,9.28,4,13.76.37,1.23.86,3,2.6,2.67,1.92-.31,1.63-2.18,1.8-3.62.29-2.47-1.68-4.39-1.67-6.79Z"/><path class="cls-6" d="M499.77,102.45a12.84,12.84,0,0,0-.75-9.66c-1.13-2.39-.84-5.22-.3-7.7.6-2.78,3.21-3,5.67-2.89.61,1.93,2.33,3.34,2.58,5.44-1.27.69-.47,1.54-.19,2.34h0c-.81.42-1.63,1.11-1.4,2,1.11,4.14-3.17,6.4-3.4,10.07-.05.75-1.15.74-1.9.72l-.25,0Z"/><path class="cls-3" d="M501.53,384.67l-3-1.47-.06-.05a20.4,20.4,0,0,0,2-6.25c.4-3.39,3.79-5.27,4.22-8.76.16-1.28.68-2.55.36-3.88-.1-.41-.48-1.05-1-.49-.27.29-.18.92-.25,1.4h0l-1.48-1.49a13.27,13.27,0,0,1,2.16-5.29c1.73.19,2.1-1.53,3.16-2.27,3.55.05,3.76,2.41,2.71,4.72-.88,1.94-.91,4-1.61,5.89-2.92,2.45-3.09,6.42-5.1,9.47C502.22,378.34,502.58,381.89,501.53,384.67Z"/><path class="cls-6" d="M141.8,172.44c2.23,3.42,1.49,7.32,1.66,11,.06,1.15-.76,2.35.52,3.3,0,.17,0,.35-.07.52l0,1.06c.22,1.23-.56,2.69.84,3.65.12,1,.25,2,.37,3-1.09,6.18.3,12.27.86,18.36.4,4.4,1.53,8.73,2.33,13.09a5.65,5.65,0,0,1-2.83-4.87c-.4-4.67-1-9.21-3.91-13.1a1,1,0,0,1,0-1.32c3.11-4.8,1.43-9.88.78-14.89-.09-.7-.7-1-1.35-1.09A181.32,181.32,0,0,0,141.8,172.44Z"/><path class="cls-2" d="M162.82,100.8a3.46,3.46,0,0,1-1-3.23,116.22,116.22,0,0,1,4-18.29,16.69,16.69,0,0,0,.52-4.75,6.14,6.14,0,0,1,3.06,6.29C168.55,87.91,167.05,94.81,162.82,100.8Z"/><path class="cls-1" d="M167.06,512l.94,3.28-.05,0c-1.85-.07-2.74,1.05-3.26,2.63l-2.75-.58a52.09,52.09,0,0,0-8.13-4.14c2.9-.09,5.24-1.48,7.45-3a80.45,80.45,0,0,0,6.39-5.12c2.11-1.83,4.11-3.8,6.62-6.14-.31,4.19-2.94,6.22-5.17,8.48-1.13,1.15-2.55,2.1-3.37,3.42S165.78,512.5,167.06,512Z"/><path class="cls-5" d="M264.77,494.67q-2.14-4.4-4.27-8.8l-1.13.43c1.28,5.81,4.34,11.11,5.81,16.89a48.45,48.45,0,0,1-6.77-13.9c-1.1-3.91.53-6.21,5-6-3.77-4.95-9.42-8.39-9.65-15.21,3.75,5.11,8.67,9.35,11.12,15.42.4,1,1.21,2-1,1.85-1-.09-.48,1.13-.3,1.78.65,2.44,1.35,4.87,2,7.31Z"/><path class="cls-1" d="M483,496.9a14.09,14.09,0,0,0,0,1.84c.1.68.75,1.44-.18,1.94a1.9,1.9,0,0,1-2.07-.45,56.19,56.19,0,0,1-5.29-4.56c-.91-.94-1.65-1.81-3.07-1.6l0,0-.12-2.1a2.1,2.1,0,0,0-1.9-2.34c.75-1.71.24-4.63,2.11-5s3.13,2.09,4.31,3.61C479,491,480.93,494,483,496.9Z"/><path class="cls-5" d="M595.75,139.68c-.9-4.06-.55-8.21,0-12.22.56-4.53,0-9.1.72-13.81,1.56.61.68,2.17,1.56,2.82,1.26.21.75-1.31,1.59-1.86.26,6.06,1.48,11.8.51,17.61C598.4,134.57,598.6,138,595.75,139.68Z"/><path class="cls-2" d="M411.58,528.67c.57.72,1,2,2.2.74l0,0a2.54,2.54,0,0,1,3.06,2.54l-.55.56c-2.25-.1-2.53,1.36-2.48,3.09a50.81,50.81,0,0,1-9.62,10.65C405.2,539.29,405.52,532.76,411.58,528.67Z"/><path class="cls-1" d="M488.91,502.74c.59-1.06-.22-1.64-.81-2.29-.23-.42-.76-1-.63-1.23.68-1.16,1.1,0,1.49.33q6.29,5.85,12.54,11.75c1.76.77,3.23,2.21,5.27,2.36a.8.8,0,0,1,.55.24c-.19.65-.38,1.3-.56,1.94L505.68,517a.56.56,0,0,0-.45.29c-1.14-.27-1.87.75-2.88.9-5.11-.09-5.92-1.38-3.79-6a.82.82,0,0,0-.73-.86h0Z"/><path class="cls-6" d="M434.71,40.19c3.68-3.66,11.66-3.53,15.64.29.39.37.34,1.19,1.23,1,3.09-.56,3.09-.55,3.72,3a2.78,2.78,0,0,1,3.26-1.8c-.28,4.4-.74,5.72-3.16,8.79a38.69,38.69,0,0,0-6.86-8.67C443.76,38.23,440.77,37.64,434.71,40.19Z"/><path class="cls-2" d="M417.51,494.2c2,2.15,3.73,1.71,4.54-.93,1.22-4,2.14-8.14,3.09-12.24.17-.72.62-1.92-.77-2-1.65-.15-.78-.83-.29-1.25,4.88-4.27,6.76-9.87,7.17-16.17.64,5.93-1,11.49-2.82,16.88-1.49,4.34-3.51,8.48-4.33,13.05-.58,3.23-2.69,5.2-5.8,6.51-.25-1.3-.49-2.58-.74-3.86Z"/><path class="cls-2" d="M595.75,139.68c2.85-1.67,2.65-5.11,4.33-7.46.1,4.7.61,9.4,0,14.09-2.28,2.71-.48,5.94-1.15,8.86a1.63,1.63,0,0,0-1.41,1.86c0,1.42-.73,2-2.08,2C595.12,152.55,595.48,146.12,595.75,139.68Z"/><path class="cls-1" d="M192.68,493.28c-1.93-2.94-4.23-1.6-5.12.37-.95,2.12-3,1.92-4.31,3.11s-.61-1.44-1.29-2.06c2.64-4,5.22-8.08,9.5-11.25,1.8,4.68,3.52,9.16,5.25,13.64l-1.7,1.3C194.24,496.69,193.46,495,192.68,493.28Z"/><path class="cls-6" d="M148.36,174c-3.53-2.12-2.89-6-3.62-9.16-.43-1.91-1-3-3.08-2.82-.22-7.1-.16-14.18,2.11-21,2.57.5,1.62,2.58,1.51,3.93C144.47,154.77,146.64,164.33,148.36,174Z"/><path class="cls-6" d="M360.46,28.46c.91,2.54,1.68,5.07,3.79,7,1.89,1.76,5,1.24,6.39,3.69a83,83,0,0,0-10.28,7.65C360.1,40.16,359.69,34.32,360.46,28.46Z"/><path class="cls-5" d="M68.59,135.15c-2.88.38-2-3.19-4-3.78-.3-5.61-.52-11.22.42-16.79.17-1-.33-2.65,1.35-2.59,1.41,0,1.5,1.65,1.58,2.64C68.48,121.45,69.42,128.28,68.59,135.15Z"/><path class="cls-3" d="M502.81,444c2.2.77,1.48-1.25,2-2.09s-.09-2.55,1.35-2.77,1.06,1.76,2.41,2.37c.95-3.73,2.22-7.15,1.4-10.92-.18-.81-.34-2.12.1-2.49,2.37-2,1.86-4.66,1.95-7.2.06-1.68.69-.64,1.18-.24-.43,7.36-2.14,14.52-3.33,21.77-.43,2.67-2.3,4.31-3.88,6.18-1.33,1.58-2.75,3.08-4.19,4.67-.8-1.14-.36-2.22-.18-3.28,2.33-1.21,2.54-2.27.89-4.66C502.64,444.85,502.72,444.4,502.81,444Zm8-14.8.14-.43-.25.06Z"/><path class="cls-1" d="M504.49,260.17c-.78-3.19,1.5-5.68,2.06-8.59.91-4.64,2.72-9.42,5.76-12.89,2.08-2.39,1.52-5.23,3.23-7.37.56-.7.34-2.08,1.81-1.9a76.66,76.66,0,0,1-11,27.24C505.66,257.76,505.12,259,504.49,260.17Z"/><path class="cls-2" d="M502,253.66c1.75-.82,1-3.59,3.18-4.08-1.14,5.15-2.2,10.4-5.8,14.49-1.53,1.73-4.16,2.34-5.29,4.68a4.22,4.22,0,0,0-.75,2l0,0a1.48,1.48,0,0,0-1.58,1.19l-11.28,5.46v0c3.48-3.69,7.72-6.45,11.64-9.61a26.69,26.69,0,0,0,6.47-7.52,4.35,4.35,0,0,0,2.53-4.82Z"/><path class="cls-2" d="M157.28,425.92c-.7-.07-1.73,0-1.87-.73-.49-2.79-2.64-2.2-4.44-2.39-1.54-6.57-1.78-13.29-2.08-20.06C151.84,410.4,155.87,417.67,157.28,425.92Z"/><path class="cls-3" d="M477.5,358.13c-1.19-2,2.07-4.49-.67-6.33l1.34-.54c.29.58.74,1.14,1.39,1,4.95-1.3,9.8-2.82,13-7.26a9.09,9.09,0,0,1,3.63-1.69c.95,1.17,3.3-.2,3.68,2l-.25.16c-2.42-.41-6.67,2.31-7.76,5A101.62,101.62,0,0,1,477.5,358.13Z"/><path class="cls-3" d="M476.89,449.18c.81.4,1.28.15,1.75-.65,2.84-4.88,6.53-9.31,7.27-15.26.19-1.48-.09-3.58,2-4.35-1.23,6.41-3.56,12.62-3.5,19.26,0,1.52-1.07,2.1-2,2.87-2,1.61-4,3.22-6.17,5C475.66,453.42,477.12,451.38,476.89,449.18Zm4.7-.67A2.9,2.9,0,0,0,482,448c0-.08-.05-.21-.08-.32-.16.05-.45.11-.45.15A3.06,3.06,0,0,0,481.59,448.51Z"/><path class="cls-3" d="M235.37,497.88c-4.06-.57-4.06-.57-6.52-3.14l-1.43,2.1c-2.28-4.71-6.41-8.6-6.41-15.38C225.88,487.64,231.88,491.61,235.37,497.88Z"/><path class="cls-5" d="M497,173.23c-.32-14.48-3.35-28.48-7.53-42.27C495.57,144.39,499.08,158.3,497,173.23Z"/><path class="cls-6" d="M562.07,271.3c1.33.31,1.4,1.8,2.3,2.58,1.29-1,1.58-2.94,3.44-3.12-1.38,4.06-4.15,7.17-7.1,10.12-1.71,1.72-3.38,2.45-4.17-.85a8.72,8.72,0,0,0-.8-1.66c.65-.38,2.17-.5,1.12-1.63-2.12-2.28-.79-3.17,1.26-4A4.94,4.94,0,0,0,562.07,271.3Z"/><path class="cls-5" d="M171.45,131.14c-3.5,13.36-5.83,26.86-5.78,40.72A72.21,72.21,0,0,1,171.45,131.14Z"/><path class="cls-2" d="M135.47,201.75c-2.24-.09-3.87,1.36-5.73,2.25-1.09-5.93,1.68-11.31,2.38-17,.2-1.58.38-3.16.57-4.73.25,0,.49-.06.74-.08C132.67,188.87,134.84,195.23,135.47,201.75Z"/><path class="cls-2" d="M408.5,458.21c1.66-7.09,2.12-13.8,4.72-20a26.86,26.86,0,0,1,2.62-4C415.79,442.22,411.94,455.18,408.5,458.21Z"/><path class="cls-2" d="M512.8,251.2c1.93.34,3.22-.47,4.38-2a15,15,0,0,1,5.86-4.82c-.89,2.81-1.73,5.65-2.69,8.43-.87,2.5-3,2.29-5,1.95S512.05,253.55,512.8,251.2Z"/><path class="cls-3" d="M108.66,541.61c-1.93,2.55-4.89,3.56-7.57,5-7.65,4.08-15.32,8.1-23,12.17a15.21,15.21,0,0,1-5.5,2.12C84.46,554.13,96.33,547.44,108.66,541.61Z"/><path class="cls-2" d="M256.61,456.43c-5.62-5.83-5.48-13.91-7.93-21C254.4,441.25,254.71,449.15,256.61,456.43Z"/><path class="cls-6" d="M461.19,404.93c.06-3.21-.65-6.62,4.21-7.4,2.09-.34,2.71-3.45,5.16-4.39,1.37,2.15,1,4.63,1.4,7-.36.05-.7.17-.76.08-2.79-3.8-3.35-3.78-5.35.51-.93,2-1.61,4.1-2.41,6.16C463.4,405.41,462.6,404.82,461.19,404.93Z"/><path class="cls-1" d="M146.1,120c2.46-.66,2.31-4.52,5.41-4.41-4.82,6.67-8.47,14.38-16.32,19.15-1.25-4.73,3.81-5,4.13-8,1.11-.26,2.39,0,3.56-1.19-1.24-.43-1.29-1.91-2.61-2.06v-.07c.91-.3,2-1.08,2.69-.81,2.92,1.17,2.93-.76,3.14-2.61Z"/><path class="cls-5" d="M398.71,489.75c.61-9.71,8.76-15,12.77-22.89,1.24,1,.72,2.15.36,3.27a15,15,0,0,1-3.22,5.42C404.8,479.91,400.34,483.8,398.71,489.75Z"/><path class="cls-3" d="M542.47,344.15c3.6,0,6.69-.9,8.88-4.13a4.09,4.09,0,0,1,4.17-1.86l0,0c-.71,1.57.28,1.49,1.32,1.36l.75.57c-6,4.09-12.69,6.46-19.37,9.15,1.31-3.35,2.17-4.27,4.48-4.85-.11.17-.21.35-.31.53l.39-.51-.27,0Z"/><path class="cls-6" d="M497.05,71.2c-2.39.09-3.71,2.25-6.12,3.12l-1.15-6c1.59-.34,1.61-1.74,1.53-2.82a3.69,3.69,0,0,1,1.16-3.17c1.59,2.28,3.09,4.63,4.8,6.82.8,1-.16,1.45-.28,2.16Z"/><path class="cls-1" d="M518.71,224.91a1.32,1.32,0,0,1-.64-1.59c1.42-5.65,2.32-11.35,1.68-17.21a6.48,6.48,0,0,1,.52-2.16l.57-1.19-.42-.17c0,.46-.07.93-.11,1.4-.78-3-3.25-6-.07-9,3.36,9.4,1.2,18.6-1,27.8C519.09,223.49,518.89,224.2,518.71,224.91Z"/><path class="cls-2" d="M527.91,261c2-8.56,3.42-17.23,4.79-25.92,0,8.18.15,16.36-2.45,24.28Z"/><path class="cls-5" d="M184.49,475.41c-7.42-5.21-12.59-12.7-19.22-18.71a116.72,116.72,0,0,1,19.82,18.71A1,1,0,0,1,184.49,475.41Z"/><path class="cls-6" d="M434.8,528.2c-1.72-3.73-1.87-6.91-3.44-9.63-.63-1.09.54-2.24,1.3-3.24a46.08,46.08,0,0,1,3.46-4.39C433.8,516.22,435.58,521.73,434.8,528.2Z"/><path class="cls-6" d="M35.16,581.89l.06,1.5c-3.67,2.93-8.18,4.32-12.23,6.54-1.07.59-2.43.66-3.18,1.8-1.62.47-3,1.64-4.87,1.43l-.75-1.23.61-.35c2.34.16,3.86-1.26,5.33-2.79l1.61-.89a2.07,2.07,0,0,0,2.13-1.27l6.55-3.36c1.06.15,2.11.25,2.5-1.12a.59.59,0,0,1,.61-.32Z"/><path class="cls-2" d="M558.12,272.76c-2,.81-3.38,1.7-1.26,4,1,1.13-.47,1.25-1.12,1.63-3.09-3.29-5.17-7.45-8.89-10.2l.49-.95Z"/><path class="cls-2" d="M204.63,408.66l-3,.71c-1.78-3.24-1.55-7.07-3-10.4,0-.52,0-1.05,0-1.57,3.57.7,5.78,2.36,5.29,6.51C203.7,405.44,204.36,407.08,204.63,408.66Z"/><path class="cls-2" d="M530.73,197.22c-2.28,0-3.42,1.85-5,3A58.73,58.73,0,0,0,528,180.66,96.23,96.23,0,0,1,530.73,197.22Z"/><path class="cls-3" d="M128.16,528.75l.88,1.94c-2.94,2.39-7.06,3.14-9.22,6.62l-10.54,4a30.3,30.3,0,0,1,7.38-4.59l.4.36-.34-.41C120.37,533.81,124,530.83,128.16,528.75Z"/><path class="cls-5" d="M370.74,506a64.62,64.62,0,0,1-3.56,22.21l-1-.13q1.59-10.93,3.17-21.89Z"/><path class="cls-5" d="M258.78,444.49c.69.11,1.33.11,1.63-.7,3.12,4.7,7.35,8.63,9.51,14l-1.27.41A38.44,38.44,0,0,1,258.78,444.49Z"/><path class="cls-2" d="M492.47,62.28a3.69,3.69,0,0,0-1.16,3.17c.08,1.08.06,2.48-1.53,2.82-2-4.72-1.91-10-3.27-15Z"/><path class="cls-5" d="M230.56,439.18c3.94,8.47,8.28,16.23,7.57,25.75-1.53-2.85-1.53-5.75-1.95-8.5-.53-3.45-1.63-6.49-4.22-8.89S229.56,442.51,230.56,439.18Z"/><path class="cls-5" d="M292.2,504.55c.62,8.15,2.65,16.08,3.68,24.17-2.7-7.85-5.73-15.62-4.9-24.18Z"/><path class="cls-2" d="M595.43,161.94c.64.17,1.28.51,1.25,1.19a56.19,56.19,0,0,0,1.55,15c.76,3.19-1,3-3.09,2C594.52,174,595.07,168,595.43,161.94Z"/><path class="cls-5" d="M208,520.37c1.36.15,1.6,1.44,2.26,2.29,2.86,3.65,5.78,7.19,10.34,8.92a5,5,0,0,1,3.28,3.19c-8.3-2.3-13.14-7.78-17.05-14.39Z"/><path class="cls-1" d="M501.53,384.67c1.05-2.78.69-6.33,2.1-8.47,2-3.05,2.18-7,5.1-9.47-2.21,7-4.41,14-6.66,20.94a11.22,11.22,0,0,1-1.35,2.2C499.5,387.91,502.1,386.53,501.53,384.67Z"/><path class="cls-1" d="M499.86,345.29c-.38-2.22-2.73-.85-3.68-2,3.91-2.78,8.38-4.43,12.69-6.47C506.65,340.53,503.16,342.82,499.86,345.29Z"/><path class="cls-3" d="M133.21,252c1.48,4.42,3,8.84,4.42,13.28.34,1,1.23,1.89.2,3.32-2.47-5.36-5.3-10.58-5.9-16.67Z"/><path class="cls-1" d="M517.31,150c.42-3-1-6.07.64-8.95,2.66,6.28,2.62,12.89,2.47,19.52a13.67,13.67,0,0,1-2.35-7.13C518,152.23,518.43,150.92,517.31,150Z"/><path class="cls-2" d="M461.19,404.93c1.41-.11,2.21.48,2.25,1.95-.7,2.87-2.54,5.42-2.34,8.53-1.16-1.61-2.44.41-3.63-.12C458.48,411.76,459.22,408.12,461.19,404.93Z"/><path class="cls-3" d="M413.37,426.7c1.12-.45,3.18-.54,3.08-1.62-.46-4.92,2.91-4.21,5.79-4.36A64.39,64.39,0,0,1,412.41,433a6.46,6.46,0,0,1,1.19-3.82c.66-.95,1-1.72-.23-2.42Z"/><path class="cls-3" d="M555.52,338.16a6.45,6.45,0,0,0,.7-2.06,3.41,3.41,0,0,1,2.52-3.61c1.9-.71,2.15,1.17,3.15,1.88l1.2.83a24.73,24.73,0,0,1-5.48,4.93l-.74-.57a2.1,2.1,0,0,0-1.33-1.36Z"/><path class="cls-2" d="M226.84,419.9c.17.92.33,1.84.5,2.77l-1.44,0c-.28-1.33-.53-2.68-.87-4s-.73-2.34-1.32-4.22c4.65,2.27,8.57,4.44,11.44,8.23a52,52,0,0,0-7.33-3.81c-.33-.47-.79-.61-1.18-.21S226.4,419.55,226.84,419.9Z"/><path class="cls-3" d="M228.88,524.07a61.67,61.67,0,0,0-1.2-10.8c4.23,1.91,5.21,4.27,3.54,8.13-.39.91-.8,1.8-1.21,2.71Z"/><path class="cls-1" d="M160.48,339.47l.6,3.32c-4.6-3.16-8.36-7.27-12.53-10.91l.62-.53Z"/><path class="cls-2" d="M465.91,506.33c-2.83,5.85-5.52,11.78-9.64,16.65,2.77-5.48,5.63-11.16,8.49-16.83Z"/><path class="cls-6" d="M157.15,252.62A39.87,39.87,0,0,1,161.09,267c-1.22-.86-2.65-1.51-3-3.2l-.71-1.35a.6.6,0,0,1-.11-.64c-.54-2.73,0-5.62-1.14-8.29C156.11,253.39,156.8,252.93,157.15,252.62Z"/><path class="cls-2" d="M370.74,506l-1.39.19c-.76-5.6,1.09-10.23,5.81-14C374.29,497,370.08,500.82,370.74,506Z"/><path class="cls-1" d="M436.17,497.82c-1.3-1.56.44-2.39.83-3.56,1-3,4.28-5.27,3.1-9a10.82,10.82,0,0,0,2.75-3C443,488.42,438.66,492.73,436.17,497.82Z"/><path class="cls-5" d="M225.9,422.71l1.44,0c1.86,3.91,2.18,8.2,2.78,12.47C227.45,431.43,226.35,427.19,225.9,422.71Z"/><path class="cls-2" d="M292.2,504.55H291c1.31-4.86-3.33-8-4-12.63C291.34,495.38,293.4,499.32,292.2,504.55Z"/><path class="cls-5" d="M170.08,273c.87-.86.45-1.5-.34-2.08-1.14-.83-2-1.81-1.7-3.35,3.18,2.57,7.34,4,9.76,8.66C174.72,275.07,172.11,274.78,170.08,273Z"/><path class="cls-6" d="M492.55,345c-3.19,4.44-8,6-13,7.26-.65.18-1.1-.38-1.39-1Z"/><path class="cls-6" d="M413.37,426.72c1.19.7.89,1.47.23,2.42a6.46,6.46,0,0,0-1.19,3.82c-.42,1.67-2,2.37-3,3.48l-2-1.63C408.75,431.63,411.21,429.28,413.37,426.72Z"/><path class="cls-2" d="M438.23,424c-.7-6.14-.74-6.17-5.75-3.75,1.41-2.21,3.74-3.45,5.9-4.73,1.17-.69,2.15.05,1.67,1.71C439.4,419.44,438.83,421.71,438.23,424Z"/><path class="cls-5" d="M12.76,594.81c-3.56,3.41-8.54,3.5-12.76,5.45,2.63-2,4.8-4.73,8.46-4.93,1.17.62,1.15-.19,1.16-1a.88.88,0,0,1,1.13-.61Z"/><path class="cls-6" d="M195,498.39l1.7-1.3q2.11,5.19,4.25,10.38l-.8.9-4.58-8.17Z"/><path class="cls-3" d="M198.6,397.4c0,.52,0,1.05,0,1.57-2.64-1.88-3.19,1-4.94,2.37v-7.88C196.07,393.73,196.74,396.36,198.6,397.4Z"/><path class="cls-2" d="M82.8,195l1.64-.6,3.93,13.72C84.72,203.9,84.22,199.24,82.8,195Z"/><path class="cls-3" d="M152.89,526.73c2.81-2.69-.4-3-1.63-4.14,3.91.62,8.06.77,9.87,5.29l-1.48-.06c-1.52-2.33-3.39-1.65-5.3-.62Z"/><path class="cls-2" d="M196.05,441.85c1,2.29,1.93,4.57,2.9,6.86.37.89,1.08,2.06-.17,2.55s-1.49-.94-1.88-1.79a23,23,0,0,1-2.21-7.83Z"/><path class="cls-2" d="M470,439.58c.16,3.43.12,6.85-1.41,10-.39.81-1,1.66-2,1.14s-.3-1.34-.06-2C467.62,445.67,468.79,442.63,470,439.58Z"/><path class="cls-3" d="M465.54,364.42c-2.15-4.74,2.75-4.43,4.6-5.54a8.14,8.14,0,0,1,6.72-.85C473.12,360.21,468,359.94,465.54,364.42Z"/><path class="cls-2" d="M200.16,508.37l.8-.9,6.42,11.75-.68.55C204,516.26,202.18,512.26,200.16,508.37Z"/><path class="cls-2" d="M133.21,252l-1.28-.07c-1.68-2.94-1.19-6.3-1.8-9.45l1.36-.07C132.06,245.62,132.64,248.81,133.21,252Z"/><path class="cls-5" d="M641.75,593.14c3.69,0,5.07,3.6,7.85,5.12-3.33.79-5.49-1.46-7.85-3.21Z"/><path class="cls-5" d="M435.43,434.44c-.74-3.79.78-7.08,2.41-10.37C438.59,427.83,437.11,431.14,435.43,434.44Z"/><path class="cls-6" d="M631.53,590.43l-.27-1.06,0-2.15c1.69.95,3.75,1.19,5.21,2.62.28.59.56,1.19.83,1.79l-1.94.23Z"/><path class="cls-2" d="M580.33,198l1.49,0c-1.14,2.88-1.65,6.1-4.76,8Z"/><path class="cls-3" d="M470.36,489.59a2.1,2.1,0,0,1,1.9,2.34c-.79.61-.7,1.48-.67,2.34-.89,1.52-.84,3.47-2.17,4.8-.18-.93,0-2-.87-2.67Q469.47,493,470.36,489.59Z"/><path class="cls-3" d="M535.44,531.48c-4-.69-6.87-3.13-9.23-6.28A37.47,37.47,0,0,1,535.44,531.48Z"/><path class="cls-5" d="M405.65,489.75c.88,3.83-1.18,6.45-3.55,9Q403.89,494.23,405.65,489.75Z"/><path class="cls-2" d="M448.86,530.14c-1.9,2-3.87,3.86-7,2.85Z"/><path class="cls-5" d="M397.66,500.34c1.11-3.12,1.93-6.38,4.52-8.73C401.21,494.79,400.09,497.9,397.66,500.34Z"/><path class="cls-1" d="M491.85,350.41c1.09-2.65,5.34-5.37,7.76-5A34.13,34.13,0,0,1,491.85,350.41Z"/><path class="cls-6" d="M566.91,280.48c1.65.66,1.73-3,3.74-1.36a26.84,26.84,0,0,1-5.63,5.42C564.93,282.45,566.18,281.58,566.91,280.48Z"/><path class="cls-6" d="M57.71,568.67C55.26,571,52.6,573,49,573.37A27.87,27.87,0,0,1,57.71,568.67Z"/><path class="cls-6" d="M382.75,522.68l2.34-.76q-.68,4.11-1.33,8.2c-1.45-1.18,0-3.26-1.37-4.45Z"/><path class="cls-6" d="M622.28,582.64l-.75-1.53c3.24,1.3,6.49,2.57,8.86,5.32l-2.14-.07,0,0a1.74,1.74,0,0,0-1.57-.79l.06,0c-.8-2.08-2.86-2.29-4.55-3Z"/><path class="cls-3" d="M445.44,396.83c.82-3.79,2.37-7.11,5.93-9.12C449.33,390.71,448.05,394.21,445.44,396.83Z"/><path class="cls-3" d="M599,155.17c.67-2.92-1.13-6.15,1.15-8.86l.06,9.63Z"/><path class="cls-2" d="M185,476.19c2.06-.94,2.84,4.14,5.35,1.14l-.26,3.81c-2-1.75-3.76-3.11-5-5Z"/><path class="cls-6" d="M207.63,455.7c-1.49-3.89,1.64-4.51,2.23-6.46l.85.41Z"/><path class="cls-6" d="M468.55,496.4c.84.71.69,1.74.87,2.67l-.9,2.55-2.4,2.16A16.74,16.74,0,0,1,468.55,496.4Z"/><path class="cls-6" d="M67.49,563.55c-2.53,2.6-5.85,3.68-9.15,4.81A25.46,25.46,0,0,1,67.49,563.55Z"/><path class="cls-3" d="M572.61,553.46a18.26,18.26,0,0,1-8.91-5A31.46,31.46,0,0,1,572.61,553.46Z"/><path class="cls-5" d="M196.05,441.85l-1.36-.21-2-8.14A14.79,14.79,0,0,1,196.05,441.85Z"/><path class="cls-2" d="M427.66,427.84c-1.21-3.83,1.33-5.55,4.86-7.88C431,423.37,427.74,424.71,427.66,427.84Z"/><path class="cls-5" d="M133.43,182.2c-.25,0-.49,0-.74.08.43-3.24.87-6.48,1.3-9.71A18.5,18.5,0,0,1,133.43,182.2Z"/><path class="cls-6" d="M614.08,576.59a19.14,19.14,0,0,1-8.44-4.78A22.08,22.08,0,0,1,614.08,576.59Z"/><path class="cls-6" d="M527.91,261l2.34-1.64c-.52,1.83-1.09,3.65-1.52,5.51-.22.93-.41,1.78-1.57,1.4s-.34-1.22-.21-1.82C527.2,263.24,527.59,262.1,527.91,261Z"/><path class="cls-3" d="M600.36,170.19c-2.22-2.7-2.09-5.44-.1-8.2C600.29,164.73,600.33,167.46,600.36,170.19Z"/><path class="cls-1" d="M148.55,331.88c-1.71-1.76-4.1-2.85-4.8-5.42-.29.13-.24.09-.22.1,1.91,1.57,4.29,2.57,5.64,4.79Z"/><path class="cls-5" d="M131.49,242.42l-1.36.07c-1-2.32-.24-4.8-.55-7.23A15.53,15.53,0,0,1,131.49,242.42Z"/><path class="cls-2" d="M635.33,591.86l1.94-.23h0a2.08,2.08,0,0,0,2.11.58c1-.16,1.63.54,2.39.94v1.91C639.68,593.85,637,594,635.33,591.86Z"/><path class="cls-3" d="M600.41,191.94c-2.17-2-2.09-4,0-6C600.4,188,600.4,190,600.41,191.94Z"/><path class="cls-3" d="M600.27,215.93c-1.93-2-1.95-4,0-6Z"/><path class="cls-6" d="M502.55,445.3c1.65,2.39,1.44,3.45-.89,4.66A7.28,7.28,0,0,1,502.55,445.3Z"/><path class="cls-3" d="M453.28,385c-.38-3,1.33-4.85,3.75-6.22Z"/><path class="cls-6" d="M380.77,36.1c1.8-1.39,3.71-2.18,6-1.1A19.56,19.56,0,0,1,380.77,36.1Z"/><path class="cls-3" d="M548.59,540c-2-.49-4.53-.12-5.08-3.05A11.21,11.21,0,0,1,548.59,540Z"/><path class="cls-2" d="M20.13,588.79c-1.47,1.53-3,3-5.33,2.79A11.17,11.17,0,0,1,20.13,588.79Z"/><path class="cls-5" d="M506.77,513.66c-2-.15-3.51-1.59-5.27-2.36C504.11,510.18,505.48,511.84,506.77,513.66Z"/><path class="cls-3" d="M543.5,536.91a6.19,6.19,0,0,0-1.35.48c-.93.58-2,1.44-2.71,0-.78-1.64,1.47-1.1,1.84-2A2.49,2.49,0,0,1,543.5,536.91Z"/><path class="cls-3" d="M493.16,360.55c1-1.76,2.78-2.84,4.18-4.24l.54.7c-1,1.8-2.77,2.89-4.24,4.25Z"/><path class="cls-1" d="M628.25,586.36l2.14.07.84.79,0,2.15c-.66-1.08-2.34-.36-2.89-1.64Z"/><path class="cls-3" d="M497.34,356.31c1.18-1.16,2-2.72,4.57-3.23a13.17,13.17,0,0,1-4,3.93Z"/><path class="cls-5" d="M173.55,538.63a10,10,0,0,1-3.73-4.34,6.7,6.7,0,0,1,4.16,4Z"/><path class="cls-2" d="M42.08,577.31a5.13,5.13,0,0,1-4.51,2.44A5.34,5.34,0,0,1,42.08,577.31Z"/><path class="cls-3" d="M140.27,123.46c1.32.15,1.37,1.63,2.61,2.06-1.17,1.21-2.45.93-3.56,1.19C139.09,125.46,140.08,124.58,140.27,123.46Z"/><path class="cls-2" d="M12.76,594.81l-2-1,3.44-1.83.75,1.23C14.65,594.29,13.6,594.42,12.76,594.81Z"/><path class="cls-5" d="M501.19,255.47a4.35,4.35,0,0,1-2.53,4.82A7.47,7.47,0,0,1,501.19,255.47Z"/><path class="cls-2" d="M228.88,524.07l1.13,0c.05,1.41.24,2.86-1,4.11A6.43,6.43,0,0,1,228.88,524.07Z"/><path class="cls-3" d="M535.85,533.87l-.45-2.41a5.06,5.06,0,0,1,3,2L538,535A3.12,3.12,0,0,1,535.85,533.87Z"/><path class="cls-6" d="M507.63,356.12c-1.06.74-1.43,2.46-3.16,2.27,0-.25.1-.49.16-.74.08-.07.24-.15.23-.2a3.47,3.47,0,0,0-.2-.5C504.92,354.09,506.4,355.54,507.63,356.12Z"/><path class="cls-6" d="M407.86,36.55c1.8-.92,3.19-.1,4.49,1.08A7.69,7.69,0,0,1,407.86,36.55Z"/><path class="cls-6" d="M398.86,35.07c1.39-.73,2.74-1.26,3.73.58A7.45,7.45,0,0,1,398.86,35.07Z"/><path class="cls-6" d="M266.8,36.09c1.3-1.16,2.58-1.33,3.83.07A6.49,6.49,0,0,1,266.8,36.09Z"/><path class="cls-5" d="M502.35,518.2c1-.15,1.74-1.17,2.88-.9-.41,2-2,2.17-3.63,2.4Z"/><path class="cls-2" d="M144.72,192c-1.4-1-.62-2.42-.84-3.65a2.43,2.43,0,0,1,.66-.14Z"/><path class="cls-3" d="M71.94,561.25A3.13,3.13,0,0,1,68.69,563,4,4,0,0,1,71.94,561.25Z"/><path class="cls-6" d="M500.06,529.31a1.64,1.64,0,0,1-1.59-.71c.68-1.09,1.94-1.2,2.93-1.75,0,.35.09.71.14,1.06Z"/><path class="cls-3" d="M424.48,416.74c-.28-1.85-.34-3.54,2.32-3.36Z"/><path class="cls-6" d="M413.85,535.55c-.05-1.73.23-3.19,2.48-3.09Z"/><path class="cls-6" d="M121.38,340.42c-1.4-.14-3.4.28-2.1-2.3Z"/><path class="cls-3" d="M580.38,557.82c-1.44,0-2.76-.23-3.17-1.93A5.26,5.26,0,0,1,580.38,557.82Z"/><path class="cls-6" d="M602.06,569.85A3.18,3.18,0,0,1,598.9,568,4,4,0,0,1,602.06,569.85Z"/><path class="cls-1" d="M151.45,115.62c0-1.5-.6-3.49,2.19-2.34Z"/><path class="cls-3" d="M421.4,525c-.19-1.7.15-3,2.22-3.1Z"/><path class="cls-2" d="M35.16,581.89l-1.63-.06c.88-1,1.81-1.9,3.31-1.63C36.77,581.26,35.67,581.28,35.16,581.89Z"/><path class="cls-6" d="M621.53,581.11c-1.44,0-2.62-.46-3.09-2A4.13,4.13,0,0,1,621.53,581.11Z"/><path class="cls-3" d="M600.36,203.19c-2.07-1-2.1-2,0-3C600.38,201.21,600.37,202.2,600.36,203.19Z"/><path class="cls-6" d="M595.35,566.07c-1.42,0-2.62-.37-3.19-1.84A4.31,4.31,0,0,1,595.35,566.07Z"/><path class="cls-3" d="M492.37,362.56c-.8.59-.91,2-2.27,2-.26-1.41.67-2,1.57-2.52Z"/><path class="cls-6" d="M590.11,563.07a2.76,2.76,0,0,1-3.19-1.85A4.26,4.26,0,0,1,590.11,563.07Z"/><path class="cls-3" d="M451.34,387.74c.18-1.18-.77-3.15,1.84-2.64Z"/><path class="cls-3" d="M416.11,420.16c-.46,1.16.57,2.91-1.39,3.48C415.19,422.48,415.65,421.32,416.11,420.16Z"/><path class="cls-3" d="M423.6,522c-.06-1.33-.11-2.66,1.65-3A4.64,4.64,0,0,1,423.6,522Z"/><path class="cls-3" d="M423.61,418.43c-.56-.11-1.4-.13-1.06-1s1.18-.58,1.88-.57Z"/><path class="cls-3" d="M143.09,522a1.36,1.36,0,0,1-2.18.16A2.26,2.26,0,0,1,143.09,522Z"/><path class="cls-2" d="M32.92,582.15c-.39,1.37-1.44,1.27-2.5,1.12A3.39,3.39,0,0,1,32.92,582.15Z"/><path class="cls-5" d="M505.68,517l1.08-1.17,1.51,0,.28.33A2.31,2.31,0,0,1,505.68,517Z"/><path class="cls-6" d="M465.91,506.33l-1.15-.18c.17-1.07.26-2.19,1.56-2.65C467.43,504.63,466.36,505.44,465.91,506.33Z"/><path class="cls-2" d="M637.27,591.63c-.27-.6-.55-1.2-.83-1.79,1-.22,1,.86,1.54,1.14l-.73.64Z"/><path class="cls-2" d="M111.58,328.44c-1.27-.09-1.51-1-1.57-2A2.78,2.78,0,0,1,111.58,328.44Z"/><path class="cls-2" d="M515,331.38l-.92.85,1-.78Z"/><path class="cls-6" d="M374.83,38a2.23,2.23,0,0,1,2.71-1C376.83,37.84,375.74,37.64,374.83,38Z"/><path class="cls-2" d="M23.87,586.63a2.07,2.07,0,0,1-2.13,1.27C22.13,586.94,23.12,587,23.87,586.63Z"/><path class="cls-3" d="M228.12,496.61c.54.86,1.6,1.63.49,2.78C228.26,498.49,227.07,497.75,228.12,496.61Z"/><path class="cls-2" d="M480.54,277.39l-.54.38c.54.45.48-.06.55-.35Z"/><path class="cls-3" d="M139.44,522.48a1.46,1.46,0,0,1-2,.62A2,2,0,0,1,139.44,522.48Z"/><path class="cls-3" d="M146.82,522.05c-.52.64-1,.54-1.44-.08A1.17,1.17,0,0,1,146.82,522.05Z"/><path class="cls-6" d="M392.77,34.84c.55-1.27,1.07-1.26,1.58,0Z"/><path class="cls-5" d="M168,267.5c-1.14.2-1.64-.28-1.49-1.43A1.81,1.81,0,0,1,168,267.5Z"/><path class="cls-6" d="M617.86,578.81a1.25,1.25,0,0,1-1.73-1A1.54,1.54,0,0,1,617.86,578.81Z"/><path class="cls-5" d="M508.44,514.3c1.51.55,1.67,1.17.11,1.9l-.28-.33C508.32,515.34,508.38,514.82,508.44,514.3Z"/><path class="cls-3" d="M501.54,527.91c-.05-.35-.1-.71-.14-1.06.32-.65.89-.63,1.49-.56l.19.06c0,.52,0,1,0,1.55Z"/><path class="cls-6" d="M213.58,42a1.37,1.37,0,0,1,1.67-1.41A2.42,2.42,0,0,1,213.58,42Z"/><path class="cls-6" d="M508.44,514.3c-.06.52-.12,1-.17,1.57l-1.51,0c.18-.64.37-1.29.56-1.94Z"/><path class="cls-5" d="M226.84,419.9c-.44-.35-.59-.81-.2-1.21s.85-.26,1.18.21Z"/><path class="cls-3" d="M582.93,559.11c-1,.35-1.76.14-1.95-1.06A2.18,2.18,0,0,1,582.93,559.11Z"/><path class="cls-5" d="M516.6,189.71c.57.55.64,1.06-.13,1.5C515.71,190.64,516,190.16,516.6,189.71Z"/><path class="cls-6" d="M404.83,35.92c.69-.86,1.16-.6,1.52.29A1.19,1.19,0,0,1,404.83,35.92Z"/><path class="cls-5" d="M515.8,186a1.88,1.88,0,0,1,.71-1.77c.31.56.73,1.11.17,1.75Z"/><path class="cls-2" d="M417.56,494.15c-.6-.17-.64-.66-.59-1.15,0-.09.25-.16.39-.24l.15,1.44Z"/><path class="cls-6" d="M637.25,591.62,638,591a1.48,1.48,0,0,1,1.38,1.22A2.08,2.08,0,0,1,637.25,591.62Z"/><path class="cls-5" d="M179.1,276.69l.93.16-.22.4-.71-.56Z"/><path class="cls-5" d="M245.82,482.92c.76.24.8.85.74,1.5l0,0a1.55,1.55,0,0,1-.75-1.5Z"/><path class="cls-6" d="M491.82,271.93a1.48,1.48,0,0,1,1.58-1.19A1.81,1.81,0,0,1,491.82,271.93Z"/><path class="cls-5" d="M245.07,481.42a1.38,1.38,0,0,1,.75,1.49l0,0c-.73-.27-.8-.86-.74-1.52Z"/><path class="cls-1" d="M140.43,322.93a1.48,1.48,0,0,0-.09.35s.13.05.21.08Z"/><path class="cls-2" d="M9.62,594.37c0,.77,0,1.58-1.16,1Z"/><path class="cls-2" d="M519.61,327.75c-.39.41-.78.81-1.18,1.21-.17-.22-.34-.44-.52-.65l1.2-1.09A5,5,0,0,0,519.61,327.75Z"/><path class="cls-1" d="M163.37,341.18l-1.92-.93A2,2,0,0,1,163.37,341.18Z"/><path class="cls-3" d="M157.42,262.46l.71,1.35C157.65,263.49,157.21,263.15,157.42,262.46Z"/><path class="cls-5" d="M174,538.28c.45.35.91.69.33,1.3l-.76-1Z"/><path class="cls-2" d="M515.84,136.47c-.91-.41-.88-.89-.12-1.43Z"/><path class="cls-6" d="M144.7,138c.53.37.28.58-.16.75Z"/><path class="cls-2" d="M268.65,458.18l1.27-.41c-.07.43-.15.86-.22,1.29Z"/><path class="cls-3" d="M144.54,188.22a2.43,2.43,0,0,0-.66.14l0-1.06C144.29,187.48,144.66,187.69,144.54,188.22Z"/><path class="cls-3" d="M444.57,397.34l.91-.55C445.31,397.19,445.1,397.54,444.57,397.34Z"/><path class="cls-3" d="M491.67,362.06l.75-.76.7.49-.75.77Z"/><path class="cls-3" d="M493.64,361.26l-.52.53-.7-.49.74-.75Z"/><path class="cls-2" d="M167.9,532.4l-.81-.81C167.69,531.53,168,531.8,167.9,532.4Z"/><path class="cls-3" d="M504.66,357a3.47,3.47,0,0,1,.2.5c0,.05-.15.13-.23.2A.68.68,0,0,1,504.66,357Z"/><path class="cls-3" d="M128.09,348.69l.53.31-.46.17c0-.18,0-.36,0-.54Z"/><path class="cls-6" d="M542.8,344.45l-.39.51c.1-.18.2-.36.31-.53Z"/><path class="cls-2" d="M184.49,475.41a1,1,0,0,0,.6,0c0,.26,0,.52-.05.78l.08-.06C184.65,476.11,184.38,475.92,184.49,475.41Z"/><path class="cls-3" d="M425.12,519.08l1-1.2A1.43,1.43,0,0,1,425.12,519.08Z"/><path class="cls-2" d="M208,520.37h-1.17a1.09,1.09,0,0,1-.15-.61l.68-.55Z"/><path class="cls-3" d="M420.62,526.16l.84-1.24Z"/><path class="cls-2" d="M167.15,531.65l-.81-.81C166.86,530.86,167.22,531,167.15,531.65Z"/><path class="cls-2" d="M515.07,331.45c-.14-.52.14-.77.59-.9l.55.53c-.33.38-.67.72-1.2.3Z"/><path class="cls-2" d="M515.66,330.55l.76-.74.66.53-.87.74Z"/><path class="cls-2" d="M516.42,329.81l.72-.77.67.54-.73.76Z"/><path class="cls-5" d="M491,535.36l-.12.25.15-.22Z"/><path class="cls-2" d="M517.14,329l.77-.73c.18.21.35.43.52.65l-.62.62Z"/><path class="cls-5" d="M244.57,480.43l.5,1,0-.05-.87-.63Z"/><path class="cls-2" d="M519.11,327.22l.76-.75a6.64,6.64,0,0,0,.51.55l-.77.73A5,5,0,0,1,519.11,327.22Z"/><path class="cls-2" d="M519.87,326.47l.75-.78.52.59-.76.74A6.64,6.64,0,0,1,519.87,326.47Z"/><path class="cls-2" d="M520.62,325.69l.76-.76.53.62-.77.73Z"/><path class="cls-2" d="M522.62,324.76l-.71.79-.53-.62.75-.71A5,5,0,0,0,522.62,324.76Z"/><path class="cls-2" d="M522.13,324.22c.28-.19.57-.37.86-.55l.31.28-.68.81A5,5,0,0,1,522.13,324.22Z"/><path class="cls-2" d="M523,323.67c.27-.39.55-.75,1.1-.45l-.08-.05-.71.78Z"/><path class="cls-5" d="M169.39,533.1c.61.11.87.35.32.89C169.6,533.7,169.5,533.4,169.39,533.1Z"/><path class="cls-2" d="M524.09,323.22v-.51l.4.14-.48.32Z"/><path class="cls-2" d="M169.39,533.1c.11.3.21.6.32.89l-1.1-.27a.75.75,0,0,0,0-.64Z"/><path class="cls-2" d="M168.65,533.16l-.82-.82C168.45,532.27,168.72,532.54,168.65,533.16Z"/><path class="cls-5" d="M179.1,276.69l-.53-.32c.48-.39.49,0,.53.32Z"/><path class="cls-1" d="M519.66,164.69l.62-.47-.38.74A.24.24,0,0,0,519.66,164.69Z"/><path class="cls-3" d="M426.72,413.43l.77-1Z"/><path class="cls-6" d="M288.58,36.75c.25-.38.5-.39.75,0h-.75Z"/><path class="cls-6" d="M203.1,33l.15-.27-.16.26Z"/><path class="cls-6" d="M593,221.2l-.15.28.16-.27Z"/><path class="cls-7" d="M148.43,249.33a4.44,4.44,0,0,1-.69-4.45l1.78,3.7Z"/><path class="cls-2" d="M501.54,527.91H503c6.32,1.45,12.8,2.19,19,4.36a1.6,1.6,0,0,0,2.11-1.06l.81.21c.2,2.4,1.44,3.71,3.9,3.76L554.47,548c10.69,5.33,21,11.4,31.31,17.34.37.22.53.79.78,1.2-4,.58-6.55-2.56-9.76-3.88-9.8-4-19.39-8.57-29.07-12.83-8.08-3.55-16.56-6.42-24.77-9.79a122.56,122.56,0,0,1-16-8.35c-2.23-1.33-4.94-.58-6.87-2.34Z"/><path class="cls-2" d="M594.71,570.45c5.29,2.18,10.71,4.13,15.16,7.92-4.44-.25-8-2.76-11.72-4.76C596.86,572.92,594.36,573.09,594.71,570.45Z"/><path class="cls-6" d="M628.25,586.36l.12,1.37c-3.37-1.11-6.79-2.12-9.11-5.09h3l0,0c.93,1.89,2.92,2.21,4.55,3l-.06,0,1.57.79Z"/><path class="cls-2" d="M587.18,566.72a2.65,2.65,0,0,1,3.22,1.78C588.47,569.45,587.29,569.05,587.18,566.72Z"/><path class="cls-2" d="M611.05,578.83c1.34-.29,2.08.45,2.62,1.52C612,581.28,611.27,580.49,611.05,578.83Z"/><path class="cls-2" d="M615.57,581.07a1,1,0,0,1,1.45.67C616,582.65,615.61,582.27,615.57,581.07Z"/><path class="cls-2" d="M591.61,569c.92-.29,1.42.2,1.77,1C592.22,570.72,591.66,570.34,591.61,569Z"/><path class="cls-2" d="M71.43,566.17a3,3,0,0,1,3.5-2.21C74.8,566.34,73.67,567.14,71.43,566.17Z"/><path class="cls-2" d="M67.24,567.41a3.58,3.58,0,0,1,2.94-.72c-.11,2.47-1.94,2.21-3.58,2.26C66.82,568.44,67,567.92,67.24,567.41Z"/><path class="cls-2" d="M78.48,561.4a2.45,2.45,0,0,1,2.31-.6c.34,2.45-1.28,2.38-2.93,2.27C78.06,562.51,78.27,562,78.48,561.4Z"/><path class="cls-6" d="M67.24,567.41c-.21.51-.42,1-.64,1.54-.73.45-1.34,1.37-2.38.59C64.59,567.93,65.91,567.67,67.24,567.41Z"/><path class="cls-6" d="M78.48,561.4c-.21.55-.42,1.11-.62,1.67H76.33C76.38,561.66,77.5,561.62,78.48,561.4Z"/><path class="cls-2" d="M83,559.2l1.32-.08c.38,1.8-.83,1.71-2,1.68Z"/><path class="cls-6" d="M83,559.2l-.67,1.6-1.63-.16C81,559.35,82,559.33,83,559.2Z"/><path class="cls-2" d="M51.61,575.87c.09-.51.36-.72.87-.51Z"/><path class="cls-3" d="M498.57,383.2l-.19.27c.05-.11.09-.21.13-.32Z"/><path class="cls-3" d="M503.79,365.17l.28.16-.28-.16Z"/><path class="cls-5" d="M535.85,533.87A3.12,3.12,0,0,0,538,535c-.49,1.94-1.82,1.58-3.11,1a21,21,0,0,0-6.23-1.93c-.76-1.55-2.35-2-3.71-2.68.82-2,2.26-1.44,3.64-.84C531,531.64,533.43,532.77,535.85,533.87Z"/><path class="cls-6" d="M524.92,531.42c1.36.73,3,1.13,3.71,2.68.06.36.13.72.19,1.07-2.46,0-3.7-1.36-3.9-3.76Z"/><path class="cls-6" d="M506.78,90l.27.15-.26-.15Z"/><path class="cls-2" d="M514.35,216c-.27-3.12-.25-6.2,1.48-9C517,210.24,516.69,213.28,514.35,216Z"/><path class="cls-2" d="M512,225.69c.14-2.5.13-5,2.09-7C514.39,221.32,514.5,223.89,512,225.69Z"/><path class="cls-2" d="M515.86,205.48c0-1.95-1-4.11,1.15-5.61C517,201.8,518.5,204.07,515.86,205.48Z"/><path class="cls-2" d="M510,232.51a1.27,1.27,0,0,1,.52-1.56C511.59,231.89,510.91,232.24,510,232.51Z"/><path class="cls-2" d="M510.77,229.52a1.22,1.22,0,0,1,.45-1.58C512.33,228.83,511.71,229.22,510.77,229.52Z"/><path class="cls-3" d="M164.69,517.91c.52-1.58,1.41-2.7,3.26-2.63C167.8,517.31,166.67,518.14,164.69,517.91Z"/><path class="cls-3" d="M597.34,193c.19.09.48.13.54.27s-.14.36-.22.55c-.19-.08-.49-.12-.54-.26S597.25,193.22,597.34,193Z"/><path class="cls-2" d="M413.78,529.41l-.29-.19.33.14Z"/><path class="cls-3" d="M240,39.28c0,.08-.05.23-.09.23a1.09,1.09,0,0,1-.28-.08c0-.09.06-.24.09-.24A.92.92,0,0,1,240,39.28Z"/><path class="cls-1" d="M146.11,120l-.53-.74c.84-.21.34.5.52.75Z"/><path class="cls-6" d="M159.62,97.5l-.18.27c.05-.1.1-.21.14-.31Z"/><path class="cls-6" d="M137,529.67a31.7,31.7,0,0,1,14.32-2.54c-1.8,3.22-5.52,2.55-8.14,3.23-4.45,1.14-8,3.55-11.86,5.57-1.82,1-3.49,2.45-5.78,2.23.35-.95.69-1.91,1-2.86,1-1,2.43-1,3.62-1.61C132.63,532.57,135.38,532.05,137,529.67Z"/><path class="cls-7" d="M137,529.67c-1.65,2.38-4.4,2.9-6.8,4-1.19.56-2.62.59-3.62,1.61l-6.79,2c2.16-3.48,6.28-4.23,9.22-6.62Z"/><path class="cls-6" d="M124.27,538.25c-1.38,3.54-4.46,4.11-7.7,4.39A12.84,12.84,0,0,1,124.27,538.25Z"/><path class="cls-6" d="M115.37,542.9c-.53,1.51-1.21,2.67-3,1.41A2.81,2.81,0,0,1,115.37,542.9Z"/><path class="cls-6" d="M154.35,527.2c1.91-1,3.78-1.71,5.3.62C157.87,527.66,156,528.44,154.35,527.2Z"/><path class="cls-6" d="M471.59,494.27c0-.86-.12-1.73.67-2.34l.12,2.1Z"/><path class="cls-7" d="M488.91,502.74l8.91,8.58c-3,.47-8.17-3.48-9.53-7.3C488.07,503.4,488,502.8,488.91,502.74Z"/><path class="cls-7" d="M497.83,511.32a.82.82,0,0,1,.73.86C498,512.2,497.09,512.45,497.83,511.32Z"/><path class="cls-6" d="M149.9,181.42c-2.16-1.58-2.27-3.66-1.45-6A13.27,13.27,0,0,1,149.9,181.42Z"/><path class="cls-6" d="M149,191.82c.42-1.24.67-2.62,2.33-2.84C150.76,190.06,152.93,193.42,149,191.82Z"/><path class="cls-6" d="M117.08,335.73c-.24.5-.23,1.22-1,1.26a.39.39,0,0,1-.25-.25c0-.8.75-.79,1.26-1l-.17.19Z"/><path class="cls-6" d="M108.19,339.68l.89-.45.12.37-1,.08Z"/><path class="cls-3" d="M288.57,36.74h.76c.1.63,1.08,1.58,0,1.78C288.4,38.68,288.68,37.42,288.57,36.74Z"/><path class="cls-6" d="M524.11,531.2a1.6,1.6,0,0,1-2.11,1.06c-6.16-2.17-12.64-2.91-19-4.36,0-.52,0-1,0-1.55l12.63,1a1.38,1.38,0,0,0,1.73,1.12C520,528.68,522.3,529.27,524.11,531.2Z"/><path class="cls-3" d="M517.44,528.51a1.38,1.38,0,0,1-1.73-1.12C516.7,527.12,517.17,527.66,517.44,528.51Z"/><path class="cls-7" d="M244.24,480.74l.87.63c-.06.66,0,1.25.74,1.52a1.55,1.55,0,0,0,.75,1.5c0,2.4,2,4.32,1.67,6.79-.17,1.44.12,3.31-1.8,3.62-1.74.29-2.23-1.44-2.6-2.67-1.39-4.48-2.61-9-4-13.76C242.06,478.13,242.88,480,244.24,480.74Z"/><path class="cls-6" d="M510.84,429.16l-.11-.37.25-.06Z"/><path class="cls-6" d="M481.59,448.51a3.06,3.06,0,0,1-.17-.66s.29-.1.45-.15c0,.11.12.24.08.32A2.9,2.9,0,0,1,481.59,448.51Z"/><path class="cls-6" d="M555.54,338.2a2.1,2.1,0,0,1,1.33,1.36C555.82,339.69,554.83,339.77,555.54,338.2Z"/><path class="cls-6" d="M520.31,204c0-.47.07-.94.11-1.4l.42.17-.57,1.19Z"/><path class="cls-1" d="M116.72,536.7l.34.41-.4-.36Z"/><path class="cls-1" d="M626.79,585.65c-1.63-.84-3.62-1.16-4.55-3C623.93,583.36,626,583.57,626.79,585.65Z"/><path class="cls-1" d="M628.3,586.4l-1.57-.79A1.74,1.74,0,0,1,628.3,586.4Z"/></svg>